<?xml version="1.0" encoding="utf-8"?>
<!-- Generator: Adobe Illustrator 16.0.0, SVG Export Plug-In . SVG Version: 6.00 Build 0)  -->
<!DOCTYPE svg PUBLIC "-//W3C//DTD SVG 1.1//EN" "http://www.w3.org/Graphics/SVG/1.1/DTD/svg11.dtd">
<svg version="1.1" xmlns="http://www.w3.org/2000/svg" xmlns:xlink="http://www.w3.org/1999/xlink" x="0px" y="0px" width="110px"
	 height="110px" viewBox="0 0 110 110" enable-background="new 0 0 110 110" xml:space="preserve">
<g id="圖層_1" display="none">
	<path display="inline" fill-rule="evenodd" clip-rule="evenodd" d="M72.361-8.458c9.332,0,18.664,0,27.996,0
		c12.826,4.762,19.025,13.799,17.96,27.625c-0.165,2.143,0.226,4.321,0.226,6.483c-0.003,23.795,0.299,47.596-0.203,71.381
		c-0.232,10.97-9.826,20.038-20.837,20.454c-17.128,0.646-34.276,0.871-51.418,0.965c-10.146,0.057-20.318-0.166-30.441-0.837
		c-12.351-0.819-21.546-10.972-22.268-23.39C-6.93,88.971-7.939,83.76-8.629,78.531c0-8.999,0-17.998,0-26.997
		c0.306-1.618,0.817-3.228,0.886-4.856c0.438-10.319,0.873-20.642,1.129-30.968C-6.272,1.961,2.182-6.52,16.041-6.795
		c10.99-0.218,21.981-0.358,32.968-0.666C56.796-7.679,64.576-8.119,72.361-8.458z M37.193,62.418
		c0.429-0.783,0.757-1.338,1.042-1.913c2.047-4.139-1.85-6.684-2.722-10.043c-2.607-10.048,2.795-22.755,11.55-26.954
		c11.763-5.642,25.479-3.085,32.048,6.312c4.834,6.916,3.715,14.582,1.63,22.097c-1.755,6.321-4.02,12.474-10.567,15.543
		c-3.898,1.826-7.869,1.757-11.283-1.051c-3.269-2.688-4.075-6.197-2.785-10.349c1.477-4.753,3.058-9.553,3.701-14.449
		c0.283-2.154-1-5.609-2.7-6.68c-2.733-1.72-6.313-0.417-7.502,2.715c-1.306,3.433-1.657,7.286-2.044,10.995
		c-0.403,3.859,0.026,7.828-0.604,11.633c-0.619,3.735-2.141,7.317-3.217,10.981c-3.357,11.439-3.844,18.769-1.213,26.534
		c2.357-5.739,4.455-10.36,6.156-15.124c1.681-4.705,2.959-9.555,4.496-14.612c12.776,8.891,23.556,7.918,31.814-3.001
		c7.77-10.271,9.298-22.095,4.722-34.021c-3.543-9.237-10.603-15.313-20.885-16.37c-4.449-0.457-9.014-0.421-13.477-0.031
		c-17.12,1.496-29.534,16.285-27.937,33.313C28.015,54.307,30.534,59.709,37.193,62.418z M-3.936,61.137
		c0.291,0.082,0.583,0.165,0.874,0.248c0.865-6.908,2.086-13.794,2.528-20.729C0.74,20.66,10.992,7.249,28.96-0.775
		c0.639-0.285,1.172-0.809,1.754-1.221c-4.703-1.056-9.16-1.1-13.614-1.033c-1.655,0.025-3.322,0.219-4.957,0.492
		C4.351-1.233-1.222,4.988-1.681,12.867c-0.261,4.482-0.488,8.966-0.694,13.451C-2.906,37.923-3.417,49.531-3.936,61.137z
		 M91.35-2.174c10.627,5.227,17.586,12.877,22.787,23.755C113.843,4.076,105.139-4.941,91.35-2.174z M-1.457,94.356
		c0.25,9.298,6.485,17.199,15.045,17.854c9.759,0.747,19.619,0.173,29.436,0.173C26.393,111.522,8.953,112.119-1.457,94.356z
		 M55.653,10.945c-12.414-1.156-25.609,8.07-28.176,19.828C33.79,19.257,42.853,13.095,55.653,10.945z M88.866,66.083
		c6.752-5.062,9.929-18.163,7.106-28.21c-0.457,4.292-0.472,9.494-1.688,14.397C93.087,57.095,90.67,61.619,88.866,66.083z
		 M113.188,97.498c-4.512,4.839-9.43,10.112-13.549,14.528C106.402,111.532,113.02,104.722,113.188,97.498z M37.916,89.06
		c-0.177,0.011-0.353,0.021-0.53,0.032c-0.099,2.117-0.689,4.366-0.166,6.315c0.594,2.208,2.188,4.146,3.348,6.203
		c2.093-1.46,4.186-2.919,6.277-4.379c-0.637-0.714-1.275-1.428-1.914-2.142c-0.988,2.363-1.976,4.728-2.963,7.092
		c-0.781-0.59-1.563-1.18-2.344-1.769C39.056,96.629,38.485,92.844,37.916,89.06z"/>
</g>
<g id="圖層_2" display="none">
	<path display="inline" fill-rule="evenodd" clip-rule="evenodd" d="M-9.492,78.498c0-5.999,0-11.999,0-17.998
		c0.271-1.445,0.752-2.888,0.78-4.338c0.261-13.64,0.402-27.281,0.661-40.921C-7.78,0.985-0.009-7.246,14.105-7.493
		c25.599-0.449,51.206-0.391,76.806-0.823c16.586-0.28,26.493,8.715,26.428,25.309c-0.1,25.783-0.558,51.564-0.899,77.347
		c-0.16,12.073-8.717,21.678-20.718,22.896c-6.942,0.704-13.951,1.255-20.918,1.141c-20.623-0.34-41.246-0.896-61.857-1.66
		c-12.375-0.457-21.18-10.043-21.447-22.42C-8.615,89.024-9.149,83.763-9.492,78.498z M77.719,114.62
		c5.898-0.355,11.505-0.663,17.108-1.04c9.642-0.648,17.117-8.269,17.338-17.944c0.396-17.307,0.8-34.615,0.858-51.924
		c0.031-8.977-0.792-17.952-1.009-26.934c-0.344-14.206-7.278-20.86-21.494-20.628C70.703-3.525,50.884-3.354,31.065-3.082
		c-6.481,0.089-12.988-0.024-19.438,0.511C2.389-1.803-2.964,5.415-2.805,14.508c0.207,11.778-0.61,23.571-0.672,35.36
		c-0.08,15.451-0.23,30.92,0.398,46.351c0.326,7.986,7.784,15.675,15.552,16.004c13.911,0.59,27.865,0.166,41.615,0.166
		c0-16.806,0.051-34.248-0.137-51.688c-0.01-0.943-1.922-2.54-3.095-2.69c-8.104-1.036-8.105-0.938-7.804-9.052
		c0.074-1.997-0.396-4.143,0.199-5.952c0.494-1.5,2.026-3.485,3.379-3.735c7.337-1.352,7.367-1.189,7.476-8.823
		c0.204-14.392,5.801-22.044,18.105-23.99c4.065-0.644,8.416-0.814,12.445-0.108c11.409,1.998,9.872-1.707,9.813,10.938
		c-0.035,7.624-0.11,7.623-7.578,6.743c-5.737-0.677-9.261,1.264-10.037,5.525c-1.866,10.251-1.334,10.867,9.123,10.528
		c0.831-0.027,1.694,0.02,2.483-0.188c3.681-0.967,4.844,1.101,5.107,4.194c0.155,1.822,0.176,3.659,0.215,5.49
		c0.177,8.257-1.986,10.97-9.399,8.413c-0.602-0.207-1.331-0.006-1.988-0.092c-3.36-0.438-4.771,0.778-4.741,4.394
		C77.796,79.423,77.719,96.553,77.719,114.62z M91.003,20.561c-0.791-11.651,0.97-9.553-9.742-10.875
		c-2.738-0.338-5.643,0.153-8.407,0.632c-8.404,1.456-12.852,5.964-14.122,14.428c-0.64,4.262-0.617,8.629-1.356,12.868
		c-0.268,1.534-1.593,3.617-2.931,4.111c-7.808,2.889-7.959,2.932-6.289,11.537c0.905,0.071,1.873,0.175,2.845,0.22
		c7.673,0.349,7.417,0.344,7.371,8.173c-0.089,15.472,0.114,30.945,0.255,46.419c0.016,1.775,0.399,3.549,0.618,5.369
		c4.841,0,9.236,0,14.085,0c0-2.708-0.009-5.006,0.002-7.304c0.068-14.813,0.1-29.626,0.232-44.438
		c0.061-6.753,0.478-7.08,7.05-7.168c8.37-0.111,9.964-2.245,7.965-10.894c-1.263-0.066-2.574-0.172-3.887-0.197
		c-12.926-0.248-13.271-0.653-11.404-13.497c1.008-6.932,3.557-9.226,10.492-9.376C86.063,20.52,88.351,20.561,91.003,20.561z"/>
</g>
<g id="圖層_3" display="none">
	<g>
		<path display="inline" fill-rule="evenodd" clip-rule="evenodd" fill="#040000" d="M114.497,20.213
			c-1.133-11.07-9.31-16.418-19.496-18.651c-13.658-2.995-27.496-4.88-41.438-6.007c-1.535-0.124-3.374,0.74-4.57-1.021
			c-3.333,0-6.666,0-9.999,0C33.555-3.371,27.655-3.908,22.08-2.455C13.008-0.089,4.791,3.242-0.518,11.762
			C-3.633,16.763-4.37,21.99-3.835,27.544c0.497,5.163,0.596,10.299,0.075,15.452c0,0,0,0,0,0
			c-1.522,9.504-2.79,19.031-2.393,28.696c-0.5,12.249,0.718,24.204,7.567,34.77c5.704,8.799,13.724,13.828,24.629,13.141
			c7.615-0.48,15.228-0.993,22.842-1.492c13.202,0.49,26.057-2.763,39.133-3.621c18.198,0.102,26.545-7.636,28.016-25.797
			c0.469-5.801,1.104-11.596,1.892-17.361C120.288,54.056,116.233,37.19,114.497,20.213z M106.042,83.881
			c-0.294,15.734-4.275,20.915-19.213,24.374c-12.879,0.144-25.759,0.287-38.638,0.43c-6.969-0.227-13.98-0.051-20.898-0.767
			c-12.98-1.345-17.891-7.011-18.339-20.195c-0.197-5.79-0.529-11.565-1.742-17.253C6.203,59.388,7.828,48.357,7.845,37.294
			c0.055-0.495,0.173-0.993,0.156-1.487c-0.597-18.248,7.866-23.024,22.896-24.121c18.775-1.369,37.594-1.557,56.405-1.123
			c10.792,0.249,18.351,8.09,18.502,18.937c0.093,6.649-0.217,13.317-0.642,19.958C104.427,60.966,106.257,72.389,106.042,83.881z"
			/>
		<path display="inline" fill-rule="evenodd" clip-rule="evenodd" fill="#040000" d="M87.305,16.718
			c-19.261,0.003-38.495-2.741-57.793-0.198c-12.93,1.702-17.149,6.027-17.078,19.053c-0.521,11.854-1.107,23.709,0.063,35.56
			c0.473,6.796,0.76,13.611,1.475,20.382c0.643,6.076,4.102,9.369,9.995,9.88c7.777,0.675,15.57,1.167,23.355,1.738
			c12.666,1.665,25.249,1.105,37.763-1.378c9.752-0.741,14.698-4.84,14.797-13.32c0.227-19.623,0.21-39.253-0.018-58.877
			C99.775,21.991,94.845,16.717,87.305,16.718z M76.707,73.354c-6.205,9.237-15.015,12.548-25.499,9.801
			c-10.875-2.851-17.48-10.408-19.684-21.508c-1.817-9.148,3.72-19.309,13.454-25.098c0.33-0.024,0.696,0.036,0.985-0.087
			c9.93-4.231,19.341-4.843,27.147,4.222C82.787,51.922,83.623,60,76.707,73.354z M83.269,38.011
			c-4.102-0.071-8.03-3.955-8.106-8.014c-0.08-4.227,3.539-7.488,8.277-7.46c4.296,0.025,7.614,3.279,7.662,7.512
			C91.151,34.487,87.609,38.087,83.269,38.011z"/>
	</g>
	<path fill-rule="evenodd" clip-rule="evenodd" fill="#040000" d="M53.133,40.913c-10.451,2.324-16.669,9.418-16.478,18.8
		c0.185,9.027,6.756,16.215,16.339,17.866c9.78,1.687,17.468-2.564,20.971-11.595C79.471,51.774,68.943,39.103,53.133,40.913z"/>
</g>
<g id="圖層_4">
	<path fill-rule="evenodd" clip-rule="evenodd" d="M92.227,1.835c-15.638,0-31.273,0-46.912,0c-2.485,1.255-5.168,0.736-7.766,0.782
		c-5.973,0.107-11.956-0.121-17.921,0.116C10.968,3.077,4.015,9.1,3.437,17.707c-0.8,11.906-0.734,23.87-1.057,35.809
		c-0.056,2.053,0.513,4.178-0.626,6.123c0,5.026,0,10.053,0,15.079c1.225,4.353,0.759,8.82,0.841,13.242
		c0.193,10.368,7.611,18.712,17.978,18.709c17.169-0.004,34.277,1.646,51.435,1.486c5.85-0.055,11.709-0.437,17.539-0.938
		c9.902-0.854,17.262-8.814,17.745-18.461c1.05-20.908,0.833-41.822,0.954-62.743C108.315,13.883,104.008,5.633,92.227,1.835z
		 M103.316,19.962c-2.004-6.165-6.824-11.904-13.301-14.037C97.945,6.798,102.304,11.563,103.316,19.962z M6.651,50.64
		c0.501-9.852,0.11-18.852,0.859-29.629C8.038,13.41,11.775,7.646,19.527,6.714c11.005-1.323,22.036,0.278,28.37-0.176
		C41.563,6.993,12.854,8.12,9.777,28.503c-1.313,8.694-3.571,36.099-3.414,52.189C5.841,70.692,6.14,60.678,6.651,50.64z
		 M22.152,103.261c-7.278-0.51-13.729-5.783-14.963-12.85c2.001,6.434,9.469,11.129,16.313,11.608
		c10.178,0.713,19.02,1.653,29.2,1.98C42.521,103.673,32.329,103.974,22.152,103.261z M71.296,64.771
		c-0.071,11.854-0.189,23.707-0.095,35.559c0.023,2.758-0.586,3.884-3.569,4.029c-8.707,0.424-8.759,0.557-8.92-8.151
		c-0.107-5.853-0.021-11.708-0.021-17.563c-0.017,0-0.033,0-0.049,0c0-6.551-0.25-13.116,0.093-19.649
		c0.207-3.967-1.324-5.221-4.988-5.285c-1.462-0.026-4.104,1.264-4.176-1.793c-0.067-2.828-1.2-6.62,3.324-7.163
		c4.307-0.516,5.29-2.79,5.111-6.732c-0.137-3.017,0.473-6.105,1.035-9.109C60.266,22.35,64,18.909,70.676,17.54
		c4.051-0.831,8.014-0.518,12.047,0.039c2.058,0.283,2.708,1.078,2.937,3.135c0.614,5.562,0.745,5.547-4.869,5.464
		c-6.575-0.097-8.831,1.807-9.736,8.219c-0.097,0.69-0.223,1.377-0.291,2.07c-0.788,7.97-0.181,8.662,7.752,8.845
		c0.559,0.013,1.134-0.07,1.67,0.042c1.724,0.358,4.593-1.241,4.361,2.547c-0.189,3.066,0.194,6.293-4.313,6.735
		C71.365,55.505,71.353,55.586,71.296,64.771z M89.77,104.017c6.248-2.956,11.759-8.518,13.771-13.192
		C102.734,97.892,97.006,103.313,89.77,104.017z"/>
</g>
</svg>
