<?xml version="1.0" encoding="utf-8"?>
<!-- Generator: Adobe Illustrator 16.0.0, SVG Export Plug-In . SVG Version: 6.00 Build 0)  -->
<!DOCTYPE svg PUBLIC "-//W3C//DTD SVG 1.1//EN" "http://www.w3.org/Graphics/SVG/1.1/DTD/svg11.dtd">
<svg version="1.1" xmlns="http://www.w3.org/2000/svg" xmlns:xlink="http://www.w3.org/1999/xlink" x="0px" y="0px" width="110px"
	 height="110px" viewBox="0 0 110 110" enable-background="new 0 0 110 110" xml:space="preserve">
<g id="圖層_1">
	<path fill-rule="evenodd" clip-rule="evenodd" d="M69.36,2.512c7.719,0,15.437,0,23.156,0c10.608,3.939,15.736,11.414,14.855,22.85
		c-0.137,1.772,0.186,3.574,0.186,5.362c-0.002,19.682,0.248,39.368-0.167,59.042c-0.192,9.073-8.128,16.574-17.235,16.918
		c-14.167,0.534-28.351,0.72-42.529,0.798c-8.392,0.047-16.806-0.138-25.179-0.692c-10.216-0.678-17.821-9.075-18.418-19.347
		c-0.253-4.344-1.088-8.654-1.658-12.979c0-7.444,0-14.887,0-22.331c0.253-1.338,0.676-2.669,0.732-4.017
		c0.363-8.536,0.722-17.073,0.935-25.615C4.321,11.13,11.313,4.115,22.776,3.887c9.089-0.18,18.181-0.296,27.269-0.551
		C56.486,3.157,62.92,2.793,69.36,2.512z M40.272,61.136c0.354-0.647,0.625-1.106,0.862-1.582c1.693-3.423-1.53-5.528-2.251-8.307
		c-2.157-8.311,2.312-18.822,9.553-22.294c9.729-4.667,21.074-2.552,26.508,5.22c3.998,5.72,3.072,12.061,1.349,18.277
		c-1.452,5.229-3.325,10.317-8.741,12.855c-3.225,1.511-6.509,1.453-9.333-0.869c-2.703-2.224-3.37-5.126-2.304-8.56
		c1.222-3.931,2.529-7.901,3.063-11.951c0.233-1.782-0.828-4.639-2.234-5.525c-2.261-1.422-5.221-0.345-6.205,2.246
		c-1.08,2.839-1.37,6.026-1.69,9.094c-0.334,3.192,0.021,6.475-0.5,9.622c-0.512,3.089-1.771,6.052-2.66,9.083
		c-2.777,9.461-3.18,15.523-1.003,21.946c1.95-4.747,3.685-8.569,5.091-12.51c1.391-3.892,2.448-7.902,3.719-12.086
		c10.568,7.354,19.484,6.55,26.315-2.482c6.426-8.496,7.69-18.275,3.905-28.139c-2.931-7.641-8.77-12.666-17.274-13.54
		c-3.68-0.378-7.456-0.348-11.146-0.026c-14.161,1.238-24.429,13.47-23.107,27.555C32.68,54.427,34.764,58.895,40.272,61.136z
		 M6.253,60.076c0.241,0.068,0.481,0.137,0.723,0.206c0.716-5.714,1.726-11.41,2.091-17.146C10.12,26.596,18.6,15.504,33.461,8.867
		c0.529-0.236,0.969-0.669,1.451-1.01c-3.89-0.873-7.577-0.91-11.26-0.854c-1.369,0.021-2.748,0.181-4.101,0.407
		C13.106,8.489,8.498,13.633,8.118,20.15c-0.215,3.708-0.404,7.416-0.574,11.126C7.104,40.875,6.682,50.477,6.253,60.076z
		 M85.065,7.709c8.79,4.323,14.546,10.651,18.849,19.648C103.671,12.879,96.472,5.421,85.065,7.709z M8.303,87.552
		c0.208,7.69,5.364,14.227,12.445,14.768c8.072,0.618,16.228,0.144,24.347,0.144C31.338,101.75,16.914,102.244,8.303,87.552z
		 M55.541,18.561c-10.269-0.957-21.183,6.675-23.305,16.4C37.457,25.437,44.953,20.34,55.541,18.561z M83.012,64.167
		c5.585-4.187,8.213-15.023,5.878-23.333c-0.378,3.55-0.391,7.853-1.396,11.909C86.503,56.733,84.504,60.475,83.012,64.167z
		 M103.128,90.15c-3.731,4.004-7.8,8.365-11.206,12.018C97.517,101.758,102.99,96.126,103.128,90.15z M40.87,83.171
		c-0.146,0.01-0.292,0.018-0.438,0.027c-0.082,1.751-0.571,3.611-0.138,5.224c0.491,1.826,1.81,3.43,2.769,5.131
		c1.731-1.208,3.462-2.414,5.192-3.623c-0.527-0.59-1.055-1.18-1.583-1.771c-0.817,1.955-1.634,3.91-2.45,5.866
		c-0.646-0.488-1.292-0.976-1.939-1.463C41.812,89.433,41.34,86.302,40.87,83.171z"/>
</g>
<g id="圖層_2" display="none">
	<path display="inline" fill-rule="evenodd" clip-rule="evenodd" d="M-9.492,78.498c0-5.999,0-11.999,0-17.998
		c0.271-1.445,0.752-2.888,0.78-4.338c0.261-13.64,0.402-27.281,0.661-40.921C-7.78,0.985-0.009-7.246,14.105-7.493
		c25.599-0.449,51.206-0.391,76.806-0.823c16.586-0.28,26.493,8.715,26.428,25.309c-0.1,25.783-0.558,51.564-0.899,77.347
		c-0.16,12.073-8.717,21.678-20.718,22.896c-6.942,0.704-13.951,1.255-20.918,1.141c-20.623-0.34-41.246-0.896-61.857-1.66
		c-12.375-0.457-21.18-10.043-21.447-22.42C-8.615,89.024-9.149,83.763-9.492,78.498z M77.719,114.62
		c5.898-0.355,11.505-0.663,17.108-1.04c9.642-0.648,17.117-8.269,17.338-17.944c0.396-17.307,0.8-34.615,0.858-51.924
		c0.031-8.977-0.792-17.952-1.009-26.934c-0.344-14.206-7.278-20.86-21.494-20.628C70.703-3.525,50.884-3.354,31.065-3.082
		c-6.481,0.089-12.988-0.024-19.438,0.511C2.389-1.803-2.964,5.415-2.805,14.508c0.207,11.778-0.61,23.571-0.672,35.36
		c-0.08,15.451-0.23,30.92,0.398,46.351c0.326,7.986,7.784,15.675,15.552,16.004c13.911,0.59,27.865,0.166,41.615,0.166
		c0-16.806,0.051-34.248-0.137-51.688c-0.01-0.943-1.922-2.54-3.095-2.69c-8.104-1.036-8.105-0.938-7.804-9.052
		c0.074-1.997-0.396-4.143,0.199-5.952c0.494-1.5,2.026-3.485,3.379-3.735c7.337-1.352,7.367-1.189,7.476-8.823
		c0.204-14.392,5.801-22.044,18.105-23.99c4.065-0.644,8.416-0.814,12.445-0.108c11.409,1.998,9.872-1.707,9.813,10.938
		c-0.035,7.624-0.11,7.623-7.578,6.743c-5.737-0.677-9.261,1.264-10.037,5.525c-1.866,10.251-1.334,10.867,9.123,10.528
		c0.831-0.027,1.694,0.02,2.483-0.188c3.681-0.967,4.844,1.101,5.107,4.194c0.155,1.822,0.176,3.659,0.215,5.49
		c0.177,8.257-1.986,10.97-9.399,8.413c-0.602-0.207-1.331-0.006-1.988-0.092c-3.36-0.438-4.771,0.778-4.741,4.394
		C77.796,79.423,77.719,96.553,77.719,114.62z M91.003,20.561c-0.791-11.651,0.97-9.553-9.742-10.875
		c-2.738-0.338-5.643,0.153-8.407,0.632c-8.404,1.456-12.852,5.964-14.122,14.428c-0.64,4.262-0.617,8.629-1.356,12.868
		c-0.268,1.534-1.593,3.617-2.931,4.111c-7.808,2.889-7.959,2.932-6.289,11.537c0.905,0.071,1.873,0.175,2.845,0.22
		c7.673,0.349,7.417,0.344,7.371,8.173c-0.089,15.472,0.114,30.945,0.255,46.419c0.016,1.775,0.399,3.549,0.618,5.369
		c4.841,0,9.236,0,14.085,0c0-2.708-0.009-5.006,0.002-7.304c0.068-14.813,0.1-29.626,0.232-44.438
		c0.061-6.753,0.478-7.08,7.05-7.168c8.37-0.111,9.964-2.245,7.965-10.894c-1.263-0.066-2.574-0.172-3.887-0.197
		c-12.926-0.248-13.271-0.653-11.404-13.497c1.008-6.932,3.557-9.226,10.492-9.376C86.063,20.52,88.351,20.561,91.003,20.561z"/>
</g>
<g id="圖層_3" display="none">
	<g display="inline">
		<path fill-rule="evenodd" clip-rule="evenodd" fill="#040000" d="M104.784,23.726C103.82,14.31,96.866,9.762,88.202,7.862
			C76.585,5.314,64.815,3.711,52.956,2.753c-1.306-0.105-2.87,0.63-3.887-0.869c-2.835,0-5.669,0-8.504,0
			c-4.627,1.782-9.645,1.326-14.387,2.562c-7.716,2.012-14.705,4.845-19.22,12.092c-2.65,4.253-3.277,8.699-2.822,13.423
			c0.423,4.392,0.507,8.76,0.064,13.143c0,0,0,0,0,0c-1.294,8.083-2.373,16.187-2.035,24.408C1.741,77.93,2.777,88.099,8.603,97.085
			c4.852,7.483,11.672,11.761,20.948,11.177c6.477-0.409,12.952-0.845,19.429-1.27c11.229,0.417,22.163-2.35,33.285-3.08
			c15.479,0.087,22.578-6.494,23.829-21.941c0.398-4.934,0.938-9.862,1.608-14.767C109.71,52.511,106.261,38.166,104.784,23.726z
			 M97.593,77.878c-0.25,13.383-3.637,17.79-16.342,20.731c-10.954,0.122-21.909,0.244-32.863,0.365
			c-5.927-0.192-11.891-0.043-17.774-0.651c-11.041-1.144-15.217-5.963-15.599-17.178c-0.168-4.924-0.45-9.837-1.482-14.674
			c-0.858-9.426,0.524-18.809,0.539-28.218c0.047-0.421,0.147-0.845,0.133-1.265c-0.508-15.521,6.69-19.583,19.474-20.516
			c15.969-1.165,31.976-1.324,47.975-0.955c9.179,0.211,15.608,6.881,15.736,16.106c0.079,5.655-0.184,11.327-0.545,16.975
			C96.219,58.388,97.775,68.104,97.593,77.878z"/>
		<path fill-rule="evenodd" clip-rule="evenodd" fill="#040000" d="M81.656,20.753c-16.383,0.002-32.742-2.332-49.157-0.169
			c-10.998,1.448-14.586,5.127-14.525,16.206c-0.443,10.083-0.941,20.166,0.054,30.245c0.402,5.78,0.646,11.577,1.254,17.336
			c0.546,5.168,3.489,7.97,8.501,8.403c6.615,0.574,13.243,0.993,19.865,1.479c10.773,1.416,21.476,0.94,32.119-1.172
			c8.295-0.63,12.502-4.116,12.586-11.329c0.192-16.69,0.179-33.387-0.016-50.078C92.263,25.238,88.069,20.752,81.656,20.753z
			 M72.642,68.924c-5.277,7.857-12.771,10.673-21.688,8.337c-9.25-2.425-14.868-8.854-16.742-18.294
			c-1.546-7.781,3.164-16.423,11.443-21.347c0.281-0.021,0.592,0.031,0.838-0.074c8.446-3.599,16.45-4.119,23.09,3.591
			C77.813,50.696,78.524,57.566,72.642,68.924z M78.223,38.864c-3.488-0.061-6.83-3.364-6.895-6.816
			c-0.068-3.595,3.01-6.369,7.04-6.345c3.654,0.021,6.477,2.789,6.517,6.389C84.928,35.866,81.915,38.929,78.223,38.864z"/>
	</g>
	<path display="inline" fill-rule="evenodd" clip-rule="evenodd" fill="#040000" d="M52.591,41.332
		c-8.889,1.977-14.178,8.011-14.016,15.99C38.732,65,44.322,71.114,52.473,72.518c8.318,1.435,14.857-2.182,17.837-9.862
		C74.992,50.57,66.038,39.792,52.591,41.332z"/>
</g>
<g id="圖層_4" display="none">
	<path display="inline" fill-rule="evenodd" clip-rule="evenodd" d="M92.227,1.835c-15.638,0-31.273,0-46.912,0
		c-2.485,1.255-5.168,0.736-7.766,0.782c-5.973,0.107-11.956-0.121-17.921,0.116C10.968,3.077,4.015,9.1,3.437,17.707
		c-0.8,11.906-0.734,23.87-1.057,35.809c-0.056,2.053,0.513,4.178-0.626,6.123c0,5.026,0,10.053,0,15.079
		c1.225,4.353,0.759,8.82,0.841,13.242c0.193,10.368,7.611,18.712,17.978,18.709c17.169-0.004,34.277,1.646,51.435,1.486
		c5.85-0.055,11.709-0.437,17.539-0.938c9.902-0.854,17.262-8.814,17.745-18.461c1.05-20.908,0.833-41.822,0.954-62.743
		C108.315,13.883,104.008,5.633,92.227,1.835z M103.316,19.962c-2.004-6.165-6.824-11.904-13.301-14.037
		C97.945,6.798,102.304,11.563,103.316,19.962z M6.651,50.64c0.501-9.852,0.11-18.852,0.859-29.629
		C8.038,13.41,11.775,7.646,19.527,6.714c11.005-1.323,22.036,0.278,28.37-0.176C41.563,6.993,12.854,8.12,9.777,28.503
		c-1.313,8.694-3.571,36.099-3.414,52.189C5.841,70.692,6.14,60.678,6.651,50.64z M22.152,103.261
		c-7.278-0.51-13.729-5.783-14.963-12.85c2.001,6.434,9.469,11.129,16.313,11.608c10.178,0.713,19.02,1.653,29.2,1.98
		C42.521,103.673,32.329,103.974,22.152,103.261z M71.296,64.771c-0.071,11.854-0.189,23.707-0.095,35.559
		c0.023,2.758-0.586,3.884-3.569,4.029c-8.707,0.424-8.759,0.557-8.92-8.151c-0.107-5.853-0.021-11.708-0.021-17.563
		c-0.017,0-0.033,0-0.049,0c0-6.551-0.25-13.116,0.093-19.649c0.207-3.967-1.324-5.221-4.988-5.285
		c-1.462-0.026-4.104,1.264-4.176-1.793c-0.067-2.828-1.2-6.62,3.324-7.163c4.307-0.516,5.29-2.79,5.111-6.732
		c-0.137-3.017,0.473-6.105,1.035-9.109C60.266,22.35,64,18.909,70.676,17.54c4.051-0.831,8.014-0.518,12.047,0.039
		c2.058,0.283,2.708,1.078,2.937,3.135c0.614,5.562,0.745,5.547-4.869,5.464c-6.575-0.097-8.831,1.807-9.736,8.219
		c-0.097,0.69-0.223,1.377-0.291,2.07c-0.788,7.97-0.181,8.662,7.752,8.845c0.559,0.013,1.134-0.07,1.67,0.042
		c1.724,0.358,4.593-1.241,4.361,2.547c-0.189,3.066,0.194,6.293-4.313,6.735C71.365,55.505,71.353,55.586,71.296,64.771z
		 M89.77,104.017c6.248-2.956,11.759-8.518,13.771-13.192C102.734,97.892,97.006,103.313,89.77,104.017z"/>
</g>
</svg>
