<?xml version="1.0" encoding="utf-8"?>
<!-- Generator: Adobe Illustrator 16.0.0, SVG Export Plug-In . SVG Version: 6.00 Build 0)  -->
<!DOCTYPE svg PUBLIC "-//W3C//DTD SVG 1.1//EN" "http://www.w3.org/Graphics/SVG/1.1/DTD/svg11.dtd">
<svg version="1.1" id="圖層_1" xmlns="http://www.w3.org/2000/svg" xmlns:xlink="http://www.w3.org/1999/xlink" x="0px" y="0px"
	 width="178px" height="178px" viewBox="0 0 178 178" enable-background="new 0 0 178 178" xml:space="preserve">
<g id="圖層_2_1_">
	<circle fill="#FFFFFF" cx="89" cy="89" r="89"/>
</g>
<g id="圖層_1_1_">
	<g>
		<path fill="#747474" d="M89.99,70.5c0.108,0.627,0.248,1.251,0.326,1.883c0.42,3.417,0.414,3.423,3.83,4.004
			c5.096,0.867,10.187,1.76,15.291,2.557c1.149,0.18,1.551,0.556,1.463,1.751c-0.371,5.016-0.664,10.038-0.963,15.057
			c-0.068,1.146-0.49,1.76-1.742,1.951c-4.965,0.763-9.914,1.625-14.865,2.469c-0.961,0.164-1.742-0.016-2.571-0.604
			c-4.868-3.45-4.892-3.43-4.979-9.383c-0.037-2.547-0.03-5.097-0.043-7.645c-0.344-1.537-0.147-3.096-0.152-4.642
			c-0.026-7.639-0.019-15.278-0.002-22.917c0.002-0.763-0.197-1.557,0.198-2.292c1.001-0.145,1.422,0.345,1.305,1.288
			c-0.076,0.603,0.145,1.078,0.429,1.558c0.423,0.687-0.111,1.542,0.39,2.216c0.088,0.1,0.102,0.208,0.039,0.325
			c0.414,0.693-0.11,1.547,0.385,2.226c0.087,0.1,0.101,0.209,0.039,0.328c0.418,0.691-0.114,1.548,0.39,2.225
			c0.297,1.806,0.594,3.612,0.892,5.419C90.031,68.975,89.578,69.804,89.99,70.5z"/>
		<path fill="#757575" d="M54.306,88.371c3.129,1.303,6.441,0.49,9.654,0.826c3.688,0.385,3.713,0.357,3.604-3.475
			c-0.125-4.318-0.258-8.636-0.466-12.95c-0.06-1.25,0.324-1.736,1.599-1.885c2.457-0.289,4.887-0.801,7.336-1.171
			c2.363-0.356,2.879,0.083,2.525,2.451c-0.722,4.827-1.559,9.638-2.358,14.454c-0.637,3.838-1.354,7.665-1.9,11.518
			c-0.202,1.43-0.625,2.063-2.206,2.103c-3.889,0.095-7.767,0.45-11.666,0.524c-4.78,0.09-8.306-2.947-12.39-4.576
			c-0.771-0.309-0.872-1.393-0.97-2.248c-0.321-0.842-0.449-1.715,0.398-2.278c1.989-1.326,4.036-2.563,6.264-3.461
			C53.936,88.118,54.136,88.238,54.306,88.371z"/>
		<path fill="#737373" d="M137.648,79.843c3.451-3.73,6.922-7.443,10.338-11.206c0.689-0.76,1.254-0.686,2.002-0.196
			c0.887,0.581,1.814,1.098,2.728,1.64c2.78,1.655,2.793,1.669,0.117,3.69c-1.976,1.493-3.955,2.983-5.988,4.394
			c-0.922,0.639-1.256,1.371-1.205,2.484c0.115,2.472,0.168,4.951,0.113,7.426c-0.029,1.277,0.407,2.063,1.481,2.758
			c3.726,2.405,7.387,4.907,11.017,7.683c-4.175,0.668-8.296,1.043-12.464,0.465c0.462-0.937,0.005-1.578-0.646-2.213
			c-2.299-2.254-4.474-4.649-7.372-6.188c-0.384-0.203-0.313-0.583-0.32-0.933C137.576,86.377,137.193,83.101,137.648,79.843z"/>
		<path fill="#767676" d="M38.984,98.225c0.475,0.178,0.866,0.457,1.222,1.094c-3.604,0-7.095,0.029-10.584-0.026
			c-0.604-0.009-1.372-0.203-1.774-0.604c-2.649-2.643-5.229-5.354-7.806-8.069c-0.418-0.44-0.264-1.073-0.267-1.633
			c-0.052-9.303-0.064-9.315,6.443-15.97c1.472-1.505,2.776-4.188,4.525-4.147c1.945,0.044,3.845,2.1,5.764,3.28
			c0.26,1.027-0.65,1.292-1.195,1.738c-1.95,1.593-4.051,2.988-6.097,4.454c-0.698,0.501-1.343,1.005-1.604,1.863
			c-0.75,3.056-0.463,6.159-0.21,9.216c0.114,1.379,1.512,2.267,2.642,3.108c2.075,1.547,4.272,2.92,6.327,4.492
			C37.011,97.914,37.787,98.525,38.984,98.225z"/>
		<path fill="#767676" d="M54.306,88.371c-2.078,1.152-4.146,2.322-6.237,3.451c-0.886,0.477-1.08,1.218-1,2.119
			c-1.512-4.033-3.008-8.072-4.545-12.095c-0.336-0.879,0.045-1.478,0.527-2.124c2.119-2.836,4.204-5.697,6.339-8.521
			c0.385-0.509,0.787-1.701,1.625-0.335c0.476,4.738,0.917,9.48,1.397,14.218c0.104,1.034,0.23,2.108,1.152,2.831
			C53.812,88.068,54.059,88.22,54.306,88.371z"/>
		<path fill="#747474" d="M125.311,76.886c0.121,6.927,0.2,13.856,0.393,20.782c0.043,1.596-0.459,2.098-2.043,2.055
			c-3.946-0.104-3.233,0.228-3.284-3.295c-0.095-6.361-0.144-12.725-0.209-19.089C121.803,76.297,123.558,76.606,125.311,76.886z"/>
		<path fill="#565656" d="M125.311,76.886c-1.656,0.819-3.437,0.222-5.145,0.453c-0.994-2.937-2.039-5.857-2.963-8.816
			c-0.584-1.869,0.018-2.594,1.971-2.611c2.613-0.024,5.229,0.024,7.84-0.055c1.238-0.038,1.432,0.382,1.094,1.484
			C127.137,70.511,126.238,73.703,125.311,76.886z"/>
		<path fill="#6F6F6F" d="M36.45,97.303c-2.764-1.947-5.488-3.953-8.312-5.809c-1.086-0.717-1.523-1.51-1.485-2.778
			c0.07-2.403,0.013-4.811,0.026-7.215c0.004-0.677-0.193-1.491,0.854-1.64c0.856-0.264,1.399,0.11,1.754,0.864
			c-0.052,3.036-0.079,6.073-0.171,9.107c-0.034,1.132,0.202,1.871,1.308,2.545c2.241,1.361,4.308,3.01,6.446,4.539
			C36.938,97.27,36.812,97.414,36.45,97.303z"/>
		<path fill="#9A9A9A" d="M29.287,80.725c-0.585-0.288-1.17-0.576-1.754-0.864c-0.59-0.989,0.333-1.132,0.84-1.528
			c2.685-2.097,5.706-3.751,8.134-6.186c2.563,1.469,2.579,1.558,0.303,3.203C34.311,77.154,31.796,78.934,29.287,80.725z"/>
		<path fill="#656565" d="M53.564,87.916c-1.319-0.012-1.654-1.01-1.754-1.987c-0.354-3.477-0.698-6.959-0.862-10.448
			c-0.072-1.524-1.262-3.105,0.066-4.614c0.872,0.46,0.993,1.299,1.078,2.152C52.584,77.985,53.074,82.95,53.564,87.916z"/>
		<path fill="#515151" d="M137.738,90.602c0.556-0.588,1.039-0.494,1.605,0.053c2.273,2.188,4.581,4.346,6.876,6.511
			c0.916,0.862,1.035,1.526-0.435,1.813c-2.821-2.573-5.594-5.201-8.123-8.069c-0.137-0.104-0.172-0.187-0.104-0.242
			C137.611,90.624,137.67,90.602,137.738,90.602z"/>
		<path fill="#797979" d="M85.781,52.691c-0.015,9.95-0.029,19.899-0.043,29.85c-0.494-1.867-0.288-3.778-0.297-5.666
			c-0.042-7.542-0.019-15.085,0-22.628C85.443,53.721,85.198,53.104,85.781,52.691z"/>
		<path fill="#747474" d="M137.738,90.602c-0.01,0.106-0.033,0.209-0.074,0.308c-0.488-3.688-0.733-7.375-0.016-11.065
			C137.679,83.429,137.708,87.016,137.738,90.602z"/>
		<path fill="#737373" d="M36.45,97.303c0.14-0.129,0.28-0.258,0.42-0.387c1.009-0.057,1.226,1.168,2.114,1.309
			C36.691,98.896,36.332,98.766,36.45,97.303z"/>
		<path fill="#797979" d="M87.904,57.752c-0.71-0.636-0.348-1.461-0.39-2.215C87.968,56.218,87.898,56.992,87.904,57.752z"/>
		<path fill="#797979" d="M88.326,60.304c-0.709-0.641-0.346-1.468-0.383-2.226C88.395,58.764,88.326,59.54,88.326,60.304z"/>
		<path fill="#797979" d="M88.756,62.856c-0.713-0.639-0.35-1.467-0.389-2.225C88.824,61.315,88.748,62.093,88.756,62.856z"/>
		<path fill="#797979" d="M89.99,70.5c-0.652-0.659-0.314-1.47-0.344-2.225C90.105,68.963,90.037,69.733,89.99,70.5z"/>
	</g>
</g>
<g>
	<path d="M39.705,123.544h0.861v3.615h4.389v-3.615h0.861v8.619h-0.861v-4.16h-4.389v4.16h-0.861V123.544z"/>
	<path d="M51.435,123.544l4.02,8.619h-0.93l-1.356-2.836h-3.713l-1.343,2.836h-0.961l4.072-8.619H51.435z M51.326,125.375
		l-1.477,3.12h2.947L51.326,125.375z"/>
	<path d="M56.796,132.163v-8.619h0.188l5.736,6.607v-6.607h0.85v8.619h-0.193l-5.689-6.526v6.526H56.796z"/>
	<path d="M66.652,126.544l-0.451-0.258c0.148-0.297,0.248-0.529,0.299-0.697s0.088-0.385,0.111-0.65h-0.516v-1.611h1.061v1.008
		c0,0.504-0.034,0.899-0.103,1.187S66.851,126.149,66.652,126.544z"/>
	<path d="M68.99,130.558l0.732-0.439c0.516,0.949,1.111,1.424,1.787,1.424c0.289,0,0.561-0.067,0.814-0.202s0.447-0.315,0.58-0.542
		s0.199-0.467,0.199-0.721c0-0.289-0.098-0.572-0.293-0.85c-0.27-0.383-0.762-0.844-1.477-1.383
		c-0.719-0.543-1.166-0.936-1.342-1.178c-0.305-0.406-0.457-0.846-0.457-1.318c0-0.375,0.09-0.717,0.27-1.025
		s0.433-0.552,0.759-0.729s0.681-0.267,1.063-0.267c0.406,0,0.786,0.101,1.14,0.302s0.728,0.571,1.122,1.11l-0.703,0.533
		c-0.324-0.43-0.601-0.713-0.829-0.85s-0.478-0.205-0.747-0.205c-0.348,0-0.632,0.105-0.853,0.316s-0.331,0.471-0.331,0.779
		c0,0.188,0.039,0.369,0.117,0.545s0.221,0.367,0.428,0.574c0.113,0.109,0.484,0.396,1.113,0.861
		c0.746,0.551,1.258,1.041,1.535,1.471s0.416,0.861,0.416,1.295c0,0.625-0.237,1.168-0.712,1.629s-1.052,0.691-1.731,0.691
		c-0.523,0-0.998-0.14-1.424-0.419S69.349,131.214,68.99,130.558z"/>
	<path d="M79.718,125.542h-0.879c0.16-0.711,0.467-1.258,0.92-1.641s0.988-0.574,1.606-0.574c0.449,0,0.867,0.103,1.256,0.308
		s0.689,0.481,0.902,0.829s0.32,0.711,0.32,1.09c0,0.742-0.369,1.33-1.107,1.764c0.414,0.168,0.754,0.414,1.02,0.738
		c0.375,0.457,0.563,0.969,0.563,1.535c0,0.488-0.129,0.954-0.387,1.397s-0.609,0.786-1.055,1.028s-0.943,0.363-1.494,0.363
		c-0.743,0-1.362-0.214-1.858-0.642s-0.82-1.056-0.973-1.884h0.844c0.148,0.559,0.361,0.963,0.639,1.213
		c0.355,0.316,0.809,0.475,1.36,0.475c0.625,0,1.127-0.188,1.506-0.563s0.568-0.814,0.568-1.318c0-0.336-0.096-0.65-0.285-0.943
		s-0.443-0.514-0.762-0.662s-0.811-0.24-1.479-0.275v-0.791c0.395,0,0.754-0.069,1.079-0.208s0.559-0.315,0.705-0.53
		s0.221-0.449,0.221-0.703c0-0.375-0.15-0.699-0.449-0.973s-0.676-0.41-1.133-0.41c-0.372,0-0.692,0.104-0.961,0.313
		S79.906,125.042,79.718,125.542z"/>
	<path d="M85.83,132.163v-8.619h1.787c1.289,0,2.225,0.104,2.807,0.311c0.836,0.293,1.489,0.801,1.96,1.523s0.706,1.584,0.706,2.584
		c0,0.863-0.187,1.623-0.56,2.279s-0.857,1.141-1.453,1.453s-1.431,0.469-2.505,0.469H85.83z M86.656,131.349h0.996
		c1.191,0,2.018-0.074,2.479-0.223c0.648-0.211,1.158-0.59,1.529-1.139c0.371-0.548,0.557-1.219,0.557-2.011
		c0-0.831-0.201-1.542-0.604-2.131c-0.402-0.59-0.963-0.993-1.682-1.212c-0.539-0.164-1.428-0.246-2.666-0.246h-0.609V131.349z"/>
	<path d="M97.596,123.544h0.885l1.761,6.211l2.471-6.211h0.179l2.442,6.211l1.791-6.211h0.878l-2.477,8.619h-0.16l-2.558-6.521
		l-2.607,6.521h-0.161L97.596,123.544z"/>
	<path d="M113.706,123.327c1.306,0,2.397,0.436,3.277,1.307s1.319,1.943,1.319,3.217c0,1.262-0.438,2.332-1.316,3.211
		s-1.947,1.318-3.21,1.318c-1.278,0-2.357-0.438-3.236-1.313c-0.88-0.875-1.319-1.934-1.319-3.176c0-0.828,0.2-1.596,0.601-2.303
		c0.401-0.707,0.947-1.261,1.639-1.661C112.152,123.527,112.9,123.327,113.706,123.327z M113.744,124.165
		c-0.638,0-1.242,0.166-1.813,0.498c-0.571,0.333-1.018,0.78-1.338,1.344c-0.321,0.563-0.481,1.189-0.481,1.882
		c0,1.024,0.355,1.89,1.065,2.595c0.71,0.706,1.565,1.059,2.567,1.059c0.669,0,1.288-0.162,1.857-0.486
		c0.569-0.325,1.014-0.769,1.332-1.331c0.319-0.563,0.479-1.188,0.479-1.877c0-0.685-0.159-1.303-0.479-1.856
		c-0.318-0.553-0.768-0.995-1.347-1.328C115.008,124.331,114.394,124.165,113.744,124.165z"/>
	<path d="M120.078,123.544h1.717c0.957,0,1.605,0.039,1.945,0.117c0.512,0.117,0.928,0.369,1.248,0.754
		c0.32,0.386,0.48,0.859,0.48,1.423c0,0.47-0.11,0.882-0.331,1.238c-0.221,0.355-0.536,0.624-0.946,0.807
		c-0.41,0.182-0.977,0.274-1.699,0.278l3.1,4.002h-1.065l-3.1-4.002h-0.487v4.002h-0.861V123.544z M120.939,124.388v2.93
		l1.484,0.012c0.575,0,1.001-0.055,1.277-0.164c0.275-0.109,0.49-0.284,0.646-0.524c0.154-0.24,0.231-0.509,0.231-0.806
		c0-0.289-0.078-0.552-0.234-0.788c-0.157-0.236-0.362-0.405-0.616-0.507c-0.255-0.102-0.678-0.152-1.268-0.152H120.939z"/>
	<path d="M127.314,123.544h0.879v3.234l3.445-3.234h1.157l-4.14,3.867l4.462,4.752h-1.147l-3.777-4.015v4.015h-0.879V123.544z"/>
	<path d="M133.514,130.558l0.732-0.439c0.516,0.949,1.111,1.424,1.787,1.424c0.289,0,0.561-0.067,0.814-0.202
		s0.447-0.315,0.58-0.542s0.199-0.467,0.199-0.721c0-0.289-0.098-0.572-0.293-0.85c-0.27-0.383-0.762-0.844-1.477-1.383
		c-0.719-0.543-1.166-0.936-1.342-1.178c-0.305-0.406-0.457-0.846-0.457-1.318c0-0.375,0.09-0.717,0.27-1.025
		s0.433-0.552,0.759-0.729s0.681-0.267,1.063-0.267c0.406,0,0.786,0.101,1.14,0.302s0.728,0.571,1.122,1.11l-0.703,0.533
		c-0.324-0.43-0.601-0.713-0.829-0.85s-0.478-0.205-0.747-0.205c-0.348,0-0.632,0.105-0.853,0.316s-0.331,0.471-0.331,0.779
		c0,0.188,0.039,0.369,0.117,0.545s0.221,0.367,0.428,0.574c0.113,0.109,0.484,0.396,1.113,0.861
		c0.746,0.551,1.258,1.041,1.535,1.471s0.416,0.861,0.416,1.295c0,0.625-0.237,1.168-0.712,1.629s-1.052,0.691-1.731,0.691
		c-0.523,0-0.998-0.14-1.424-0.419S133.873,131.214,133.514,130.558z"/>
</g>
</svg>
