<?xml version="1.0" encoding="utf-8"?>
<!-- Generator: Adobe Illustrator 16.0.0, SVG Export Plug-In . SVG Version: 6.00 Build 0)  -->
<!DOCTYPE svg PUBLIC "-//W3C//DTD SVG 1.1//EN" "http://www.w3.org/Graphics/SVG/1.1/DTD/svg11.dtd">
<svg version="1.1" xmlns="http://www.w3.org/2000/svg" xmlns:xlink="http://www.w3.org/1999/xlink" x="0px" y="0px" width="178px"
	 height="178px" viewBox="0 0 178 178" enable-background="new 0 0 178 178" xml:space="preserve">
<g id="桶框線" display="none">
	
		<path id="桶身_1_" display="inline" fill-rule="evenodd" clip-rule="evenodd" fill="none" stroke="#000000" stroke-miterlimit="10" d="
		M346.737-194.861c0-6.329-0.145-12.662,0.027-18.986c0.51-18.853-9.307-31.689-24.217-41.398
		c-13.236-8.62-28.07-13.635-43.139-17.873c-30.586-8.604-61.959-11.84-93.582-12.746c-30.668-0.879-61.205,1.074-91.34,7
		c-22.395,4.403-44.372,10.369-63.71,23.258c-12.504,8.333-19.268,20.31-19.468,35.184c-0.265,19.632,0.232,39.285,0.835,58.915
		c0.775,25.261,2.182,50.505,2.93,75.767c0.545,18.363,3.307,37.764,8.148,55.328c2.778,10.076,6.445,8.659,7.463,13.296
		c6.897,31.396,13.65,62.824,20.264,94.283c1.258,5.979,2.463,12.078,2.633,18.152c0.264,9.467,0.434,18.846,4.27,27.713
		c5.012,11.592,13.804,20.338,22.479,29.053c8.078,8.115,15.881,16.902,25.254,23.254c22.43,15.193,48.217,19.75,74.813,19.061
		c26.275-0.682,51.266-7.275,73.943-20.797c5.764-3.436,10.426-9.07,14.814-14.344c3.563-4.279,7.095-7.977,10.153-12.649
		c8.918-13.624,16.997-27.095,13.562-44.317c-0.697-3.494-0.559-7.432,0.268-10.912c7.725-32.586,15.664-65.119,23.623-97.65
		c0.414-1.695,1.213-3.568,2.426-4.754c6.197-6.055,8.951-13.865,11.496-21.786c9.99-31.111,11.568-63.49,13.855-95.691
		c1.566-22.065,1.809-44.225,2.643-66.342C347.032-194.851,346.886-194.856,346.737-194.861z"/>
	
		<path id="陰影_3_" display="inline" opacity="0.8" fill-rule="evenodd" clip-rule="evenodd" fill="none" stroke="#000000" stroke-miterlimit="10" d="
		M299.933,3.361l-22,89.331c-57-35-158.332-35-209.999,2.5L44.523-6.338"/>
	
		<path id="桶上半部_1_" display="inline" fill-rule="evenodd" clip-rule="evenodd" fill="none" stroke="#000000" stroke-miterlimit="10" d="
		M30.686-17.118c0,0,25.211,22.168,51.229,31.156c26.018,8.988,76.135,14.041,94.076,13.816c0,0,63.578,0.221,91.26-10.471
		c0,0,37.086-14.119,49.51-23.656c0,0,0.838-3.082,2.426-4.754c0,0,3.135-3.021,4.869-6.092c0,0,6.51-9.189,11.943-35.69
		c0,0,5.557-33.859,6.887-52.482c0,0,4.791-76.756,4.295-89.555l-0.439-22.474c0,0,0.145-18.32-15.664-31.489
		c0,0-44.928-37.014-151.869-37.257c0,0-102.875-2.522-148.431,30.458c0,0-17.844,11.299-19.314,31.954c0,0,0,137.011,5.75,160.175
		C17.213-63.479,20.029-25.583,30.686-17.118z"/>
	
		<path id="桶下圓_1_" display="inline" fill-rule="evenodd" clip-rule="evenodd" fill="none" stroke="#000000" stroke-miterlimit="10" d="
		M57.064,121.063c0,0,54.868,53.129,120.628,50.084c0,0,74.221-0.113,113.73-48.117c0,0-12.484,32.736-34.32,48.699
		c0,0-30.762,23.172-82.465,22.734c0,0-44.853,0.902-73.111-22.102C101.526,172.362,62.309,138.817,57.064,121.063z"/>
</g>
<g id="圖層_2">
	<g>
		<polygon points="77.641,75.41 70.882,75.41 70.882,60.863 69.876,60.863 69.876,76.265 77.641,76.265 		"/>
		<polygon points="80.399,76.265 81.512,76.265 82.924,71.581 88.165,71.581 89.554,76.265 90.688,76.265 85.533,60.243 		"/>
		<polygon points="102.688,75.41 95.543,75.41 102.174,61.719 102.174,60.863 94.58,60.863 94.58,61.719 101.04,61.719 
			94.345,75.41 94.345,76.265 102.688,76.265 		"/>
		<polygon points="110.28,76.265 111.285,76.265 111.285,69.74 115.157,60.863 114.023,60.863 110.772,68.563 107.542,60.863 
			106.408,60.863 110.28,69.74 		"/>
		<path d="M61.085,93.783c1.498-0.664,2.46-1.799,2.46-3.487c0-2.354-1.562-3.766-3.807-3.766h-3.766v15.4h4.406
			c2.44,0,3.852-1.86,3.852-4.064C64.23,95.793,63.075,94.358,61.085,93.783z M56.979,87.387h2.288c2.567,0,3.273,1.196,3.273,2.844
			c0,1.968-1.369,3.252-4,3.252h-1.562V87.387z M60.209,101.075h-3.23v-6.736h2.652c2.288,0,3.593,1.711,3.593,3.571
			C63.224,100.156,61.471,101.075,60.209,101.075z"/>
		<polygon points="67.566,101.931 68.678,101.931 70.09,97.248 75.331,97.248 76.721,101.931 77.855,101.931 72.7,85.91 		"/>
		<path d="M86.367,93.696l-1.263-0.77c-1.881-1.155-2.417-1.947-2.417-3.145c0-1.626,1.285-2.694,2.845-2.694
			c1.326,0,2.417,0.791,3.38,1.624l0.6-0.749c-1.049-0.962-2.46-1.731-3.915-1.731c-2.225,0-3.979,1.347-3.979,3.658
			c0,1.859,1.305,2.887,2.781,3.765l1.434,0.855c2.845,1.689,3.015,2.245,3.015,3.699c0,1.84-1.497,3.165-3.293,3.165
			c-1.476,0-2.76-0.854-3.572-2.029l-0.771,0.618c1.091,1.411,2.525,2.268,4.343,2.268c2.631,0,4.364-1.626,4.364-4.277
			C89.918,96.05,88.805,95.172,86.367,93.696z"/>
		<path d="M100.976,90.125c0.62-1.027,1.24-2.055,1.84-3.103l-1.048-0.556c-0.556,1.454-1.305,2.845-2.183,4.129
			c-0.812,1.176-2.16,2.971-3.657,2.993V86.53h-1.006v15.4h1.006v-7.485h0.513l6.097,7.485h1.39l-6.588-7.827
			C98.922,93.184,100.035,91.686,100.976,90.125z"/>
		<polygon points="108.997,94.445 113.682,94.445 113.682,93.589 108.997,93.589 108.997,87.387 115.521,87.387 115.521,86.53 
			107.991,86.53 107.991,101.931 115.67,101.931 115.67,101.075 108.997,101.075 		"/>
		<polygon points="119.07,86.53 119.07,87.387 123.499,87.387 123.499,101.931 124.504,101.931 124.504,87.387 128.954,87.387 
			128.954,86.53 		"/>
	</g>
	<g id="桶框線_拷貝">
		<path d="M89.574,161.251c-8.03,0-14.59-1.801-20.056-5.504c-2.185-1.479-4.093-3.438-5.937-5.333
			c-0.438-0.452-0.876-0.902-1.319-1.345l-0.094-0.096c-2.432-2.439-4.946-4.967-6.375-8.27c-1.082-2.503-1.157-5.192-1.229-7.794
			l-0.005-0.196c-0.047-1.708-0.382-3.421-0.751-5.172c-1.892-9.002-3.844-18.088-5.803-27.004
			c-0.112-0.508-0.333-0.732-0.641-1.043c-0.453-0.459-1.019-1.028-1.495-2.758c-1.369-4.967-2.179-10.46-2.339-15.882
			c-0.11-3.693-0.271-7.447-0.426-11.078c-0.149-3.48-0.304-7.08-0.413-10.622c-0.157-5.112-0.318-11.052-0.239-16.88
			c0.057-4.25,2.007-7.773,5.64-10.195c5.785-3.855,12.497-5.542,18.298-6.683c6.97-1.37,14.446-2.065,22.224-2.065
			c1.303,0,2.639,0.021,3.97,0.058c10.514,0.303,19.042,1.464,26.838,3.657c4.121,1.158,8.474,2.583,12.395,5.136
			c4.843,3.154,7.134,7.073,7.001,11.982c-0.034,1.24-0.025,2.505-0.016,3.728c0.004,0.522,0.008,1.045,0.008,1.567l0.133,0.005
			l-0.007,0.144c-0.073,1.958-0.132,3.947-0.188,5.872c-0.126,4.308-0.258,8.763-0.568,13.134c-0.052,0.723-0.101,1.443-0.152,2.165
			c-0.58,8.38-1.181,17.046-3.824,25.277c-0.78,2.43-1.569,4.577-3.328,6.297c-0.284,0.278-0.523,0.749-0.656,1.293
			c-2.306,9.423-4.557,18.651-6.766,27.968c-0.238,0.999-0.265,2.116-0.076,3.064c0.967,4.846-1.196,8.664-3.904,12.8
			c-0.65,0.994-1.362,1.82-2.116,2.694c-0.266,0.309-0.533,0.618-0.803,0.943l-0.034,0.041c-1.272,1.529-2.589,3.111-4.245,4.098
			c-6.313,3.764-13.461,5.773-21.248,5.977C90.542,161.245,90.058,161.251,89.574,161.251z M88.614,23.619
			c-7.76,0-15.218,0.694-22.168,2.061c-5.774,1.134-12.453,2.812-18.196,6.639c-3.551,2.366-5.457,5.81-5.512,9.961
			c-0.079,5.82,0.082,11.758,0.239,16.867c0.108,3.54,0.263,7.14,0.412,10.618c0.156,3.633,0.317,7.387,0.426,11.084
			c0.161,5.398,0.966,10.866,2.329,15.812c0.457,1.657,0.993,2.199,1.422,2.632c0.315,0.32,0.587,0.595,0.717,1.184
			c1.959,8.918,3.912,18.004,5.805,27.007c0.371,1.764,0.708,3.492,0.757,5.224l0.004,0.197c0.075,2.692,0.145,5.233,1.207,7.688
			c1.406,3.253,3.9,5.76,6.313,8.181l0.095,0.098c0.442,0.441,0.881,0.894,1.32,1.346c1.835,1.884,3.731,3.831,5.892,5.296
			c5.417,3.669,11.925,5.454,19.896,5.454c0.481,0,0.964-0.008,1.447-0.021c7.737-0.198,14.839-2.196,21.109-5.935
			c1.614-0.964,2.916-2.525,4.171-4.035l0.036-0.043c0.27-0.324,0.539-0.637,0.806-0.945c0.747-0.868,1.453-1.688,2.092-2.664
			c2.673-4.082,4.81-7.851,3.864-12.588c-0.197-0.985-0.169-2.146,0.078-3.185c2.208-9.318,4.46-18.548,6.765-27.972
			c0.086-0.349,0.294-0.998,0.735-1.429c1.712-1.673,2.487-3.789,3.256-6.181c2.631-8.197,3.23-16.845,3.81-25.21
			c0.05-0.721,0.1-1.443,0.151-2.164c0.31-4.365,0.441-8.817,0.567-13.124c0.055-1.877,0.112-3.818,0.184-5.73l-0.122-0.003v-0.139
			c0-0.568-0.004-1.136-0.008-1.705c-0.009-1.225-0.018-2.492,0.016-3.737c0.129-4.8-2.118-8.639-6.871-11.733
			c-3.888-2.532-8.218-3.948-12.316-5.101c-7.771-2.187-16.277-3.345-26.769-3.645C91.247,23.639,89.914,23.619,88.614,23.619z"/>
		<path opacity="0.8" d="M58.722,132.918l-6.754-29.291l0.279-0.064l6.657,28.869c7.028-5.021,17.73-7.951,29.409-8.047
			c11.583-0.098,22.701,2.586,30.555,7.351l6.254-25.396l0.279,0.068l-6.348,25.774l-0.167-0.102
			c-7.819-4.801-18.965-7.507-30.571-7.408c-11.717,0.095-22.439,3.053-29.418,8.118L58.722,132.918z"/>
		<path d="M89.421,113.534c-5.147,0-19.22-1.401-26.65-3.968c-7.394-2.555-14.648-8.889-14.721-8.952
			c-3.061-2.431-3.875-12.929-3.908-13.374c-1.628-6.553-1.646-45.496-1.646-45.889c0.421-5.93,5.546-9.24,5.598-9.273
			c11.226-8.125,34.328-8.758,41.141-8.758c0.932,0,1.452,0.012,1.452,0.012c30.327,0.068,43.456,10.598,43.585,10.704
			c4.528,3.772,4.539,9.078,4.539,9.131l0.125,6.433c0.142,3.629-1.216,25.441-1.23,25.662c-0.376,5.282-1.958,14.948-1.974,15.047
			c-1.546,7.538-3.369,10.173-3.445,10.28c-0.493,0.875-1.375,1.73-1.413,1.767c-0.42,0.442-0.653,1.286-0.655,1.295l-0.014,0.047
			l-0.038,0.029c-3.534,2.714-14.11,6.756-14.216,6.796c-7.571,2.924-24.231,3.008-26.106,3.008h-0.084
			C89.654,113.531,89.54,113.534,89.421,113.534z M89.235,23.607c-6.792,0-29.817,0.628-40.98,8.709
			c-0.059,0.036-5.063,3.273-5.473,9.047c0.001,0.381,0.019,39.289,1.643,45.832c0.012,0.13,0.841,10.842,3.809,13.2
			c0.078,0.067,7.292,6.365,14.631,8.898c7.4,2.559,21.426,3.953,26.557,3.953c0.118,0,0.231-0.002,0.339-0.003h0.086
			c1.87,0,18.48-0.083,26.003-2.988c0.106-0.042,10.569-4.04,14.107-6.728c0.059-0.196,0.298-0.936,0.715-1.374
			c0.014-0.014,0.894-0.866,1.375-1.718c0.026-0.039,1.875-2.719,3.405-10.182c0.015-0.09,1.593-9.745,1.97-15.013
			c0.013-0.218,1.37-22.018,1.229-25.634l-0.126-6.44c0-0.056-0.014-5.229-4.434-8.91c-0.127-0.106-13.19-10.57-43.407-10.639
			C90.68,23.619,90.162,23.607,89.235,23.607z"/>
		<path d="M90.352,57.307c0,0,0,0-0.001,0c-0.591,0-0.914-0.007-0.914-0.007c-18.958,0-29.894-4.103-35.729-7.545
			c-6.342-3.742-8.215-7.549-8.233-7.588c-0.455-1.07,0.028-2.883,0.374-3.57c1.381-2.75,3.498-4.205,3.519-4.22
			c10.402-8.344,30.125-9.244,38.122-9.244c1.984,0,3.188,0.057,3.2,0.058c29.344,0.33,40.788,9.949,40.899,10.047
			c2.179,1.777,3.731,3.758,4.253,5.432c0.544,1.739,0.019,3.132-0.003,3.189C128.454,56.658,96.654,57.307,90.352,57.307z
			 M87.489,25.42c-7.967,0-27.612,0.894-37.952,9.187c-0.03,0.02-2.086,1.439-3.432,4.119c-0.347,0.688-0.767,2.391-0.37,3.324
			c0.015,0.031,1.864,3.776,8.146,7.475c5.804,3.418,16.685,7.489,35.558,7.489c0.003,0,0.325,0.006,0.912,0.006
			c6.273,0,37.933-0.641,45.229-13.284c0,0,0,0,0,0c0,0,0.5-1.346-0.012-2.982c-0.507-1.621-2.025-3.552-4.164-5.297
			c-0.115-0.098-11.495-9.649-40.723-9.98C90.663,25.476,89.465,25.42,87.489,25.42z"/>
		<path d="M89.789,161.252c-0.138,0-0.275,0-0.414-0.001c-0.002,0-0.07,0.001-0.196,0.001c-1.333,0-13.236-0.18-20.833-6.363
			c-0.463-0.396-11.285-9.697-12.782-14.766l-0.154-0.521l0.39,0.379c0.149,0.143,15.022,14.342,32.884,14.342
			c0.521,0,1.045-0.012,1.56-0.036c0.218,0,21.329-0.19,32.471-13.73l0.556-0.675l-0.313,0.817
			c-0.035,0.095-3.662,9.469-9.878,14.014C112.993,154.776,104.227,161.252,89.789,161.252z M89.372,160.965
			c0.143,0,0.279,0.002,0.417,0.002c14.337-0.002,23.033-6.42,23.12-6.484c5.057-3.698,8.388-10.644,9.432-13.044
			c-11.366,12.95-31.88,13.134-32.09,13.134c-0.513,0.023-1.043,0.036-1.567,0.036c-16.291,0-30.097-11.721-32.659-14.031
			c2.044,5.104,12.395,13.998,12.504,14.092c7.519,6.119,19.329,6.298,20.65,6.298C89.304,160.967,89.371,160.965,89.372,160.965z"
			/>
	</g>
</g>
</svg>
