<?xml version="1.0" encoding="utf-8"?>
<!-- Generator: Adobe Illustrator 16.0.0, SVG Export Plug-In . SVG Version: 6.00 Build 0)  -->
<!DOCTYPE svg PUBLIC "-//W3C//DTD SVG 1.1//EN" "http://www.w3.org/Graphics/SVG/1.1/DTD/svg11.dtd">
<svg version="1.1" xmlns="http://www.w3.org/2000/svg" xmlns:xlink="http://www.w3.org/1999/xlink" x="0px" y="0px" width="178px"
	 height="178px" viewBox="0 0 178 178" enable-background="new 0 0 178 178" xml:space="preserve">
<g id="圖層_1">
	<circle fill="#FFFFFF" cx="89" cy="89" r="89"/>
	<g>
		<path d="M37.971,123.715h0.861v3.615h4.389v-3.615h0.861v8.619h-0.861v-4.16h-4.389v4.16h-0.861V123.715z"/>
		<path d="M46.209,123.715h0.861v5.203c0,0.617,0.012,1.002,0.035,1.154c0.043,0.34,0.143,0.624,0.299,0.853s0.396,0.42,0.721,0.574
			s0.65,0.231,0.979,0.231c0.285,0,0.559-0.061,0.82-0.182s0.48-0.289,0.656-0.504s0.305-0.475,0.387-0.779
			c0.059-0.219,0.088-0.668,0.088-1.348v-5.203h0.861v5.203c0,0.77-0.075,1.392-0.226,1.866s-0.451,0.888-0.902,1.239
			s-0.997,0.527-1.638,0.527c-0.695,0-1.291-0.166-1.787-0.498s-0.828-0.771-0.996-1.318c-0.105-0.336-0.158-0.941-0.158-1.816
			V123.715z"/>
		<path d="M54.043,132.334v-8.619h0.188l5.736,6.607v-6.607h0.85v8.619h-0.193l-5.689-6.526v6.526H54.043z"/>
		<path d="M71.229,125.162l-0.668,0.633c-0.48-0.473-1.007-0.831-1.579-1.075s-1.13-0.366-1.673-0.366
			c-0.676,0-1.319,0.166-1.931,0.498s-1.085,0.782-1.421,1.351s-0.504,1.169-0.504,1.802c0,0.648,0.174,1.265,0.521,1.849
			s0.828,1.043,1.441,1.377s1.285,0.501,2.016,0.501c0.887,0,1.637-0.25,2.25-0.75s0.977-1.148,1.09-1.945h-2.748v-0.832h3.715
			c-0.008,1.332-0.403,2.39-1.187,3.173s-1.831,1.175-3.144,1.175c-1.594,0-2.855-0.543-3.785-1.629
			c-0.715-0.836-1.072-1.803-1.072-2.9c0-0.816,0.205-1.576,0.615-2.279s0.973-1.253,1.688-1.649s1.523-0.595,2.426-0.595
			c0.73,0,1.418,0.132,2.063,0.396S70.615,124.58,71.229,125.162z"/>
		<path d="M74.363,126.715l-0.451-0.258c0.148-0.297,0.248-0.529,0.299-0.697s0.088-0.385,0.111-0.65h-0.516v-1.611h1.061v1.008
			c0,0.504-0.034,0.899-0.103,1.187S74.563,126.32,74.363,126.715z"/>
		<path d="M76.701,130.729l0.732-0.439c0.516,0.949,1.111,1.424,1.787,1.424c0.289,0,0.561-0.067,0.814-0.202
			s0.447-0.315,0.58-0.542s0.199-0.467,0.199-0.721c0-0.289-0.098-0.572-0.293-0.85c-0.27-0.383-0.762-0.844-1.477-1.383
			c-0.719-0.543-1.166-0.936-1.342-1.178c-0.305-0.406-0.457-0.846-0.457-1.318c0-0.375,0.09-0.717,0.27-1.025
			s0.433-0.552,0.759-0.729s0.681-0.267,1.063-0.267c0.406,0,0.786,0.101,1.14,0.302s0.728,0.571,1.122,1.11l-0.703,0.533
			c-0.324-0.43-0.601-0.713-0.829-0.85s-0.478-0.205-0.747-0.205c-0.348,0-0.632,0.105-0.853,0.316s-0.331,0.471-0.331,0.779
			c0,0.188,0.039,0.369,0.117,0.545s0.221,0.367,0.428,0.574c0.113,0.109,0.484,0.396,1.113,0.861
			c0.746,0.551,1.258,1.041,1.535,1.471s0.416,0.861,0.416,1.295c0,0.625-0.237,1.168-0.712,1.629s-1.052,0.691-1.731,0.691
			c-0.523,0-0.998-0.14-1.424-0.419S77.061,131.385,76.701,130.729z"/>
		<path d="M87.23,126.41h-0.826c0.023-0.85,0.308-1.548,0.853-2.094s1.218-0.818,2.019-0.818c0.793,0,1.435,0.256,1.925,0.768
			c0.49,0.513,0.735,1.116,0.735,1.812c0,0.488-0.117,0.947-0.351,1.375s-0.688,1.007-1.361,1.738l-2.147,2.312h3.977v0.832h-5.854
			l3.293-3.559c0.668-0.716,1.103-1.246,1.304-1.593c0.201-0.346,0.302-0.71,0.302-1.093c0-0.485-0.181-0.902-0.542-1.253
			c-0.361-0.35-0.804-0.524-1.327-0.524c-0.551,0-1.009,0.184-1.374,0.551S87.281,125.746,87.23,126.41z"/>
		<path d="M93.541,132.334v-8.619h1.787c1.289,0,2.225,0.104,2.807,0.311c0.836,0.293,1.489,0.801,1.96,1.523
			s0.706,1.584,0.706,2.584c0,0.863-0.187,1.623-0.56,2.279s-0.857,1.141-1.453,1.453s-1.431,0.469-2.505,0.469H93.541z
			 M94.367,131.52h0.996c1.191,0,2.018-0.074,2.479-0.223c0.648-0.211,1.158-0.59,1.529-1.139c0.371-0.548,0.557-1.219,0.557-2.011
			c0-0.831-0.201-1.542-0.604-2.131c-0.402-0.59-0.963-0.993-1.682-1.212c-0.539-0.164-1.428-0.246-2.666-0.246h-0.609V131.52z"/>
		<path d="M105.307,123.715h0.885l1.761,6.211l2.471-6.211h0.179l2.442,6.211l1.791-6.211h0.878l-2.477,8.619h-0.16l-2.558-6.521
			l-2.607,6.521h-0.161L105.307,123.715z"/>
		<path d="M121.417,123.498c1.306,0,2.397,0.436,3.277,1.307s1.319,1.943,1.319,3.217c0,1.262-0.438,2.332-1.316,3.211
			s-1.947,1.318-3.21,1.318c-1.278,0-2.357-0.438-3.236-1.313c-0.88-0.875-1.319-1.934-1.319-3.176c0-0.828,0.2-1.596,0.601-2.303
			c0.401-0.707,0.947-1.261,1.639-1.661C119.863,123.698,120.611,123.498,121.417,123.498z M121.455,124.336
			c-0.638,0-1.242,0.166-1.813,0.498c-0.571,0.333-1.018,0.78-1.338,1.344c-0.321,0.563-0.481,1.189-0.481,1.882
			c0,1.024,0.355,1.89,1.065,2.595c0.71,0.706,1.565,1.059,2.567,1.059c0.669,0,1.288-0.162,1.857-0.486
			c0.569-0.325,1.014-0.769,1.332-1.331c0.319-0.563,0.479-1.188,0.479-1.877c0-0.685-0.159-1.303-0.479-1.856
			c-0.318-0.553-0.768-0.995-1.347-1.328C122.719,124.502,122.104,124.336,121.455,124.336z"/>
		<path d="M127.789,123.715h1.717c0.957,0,1.605,0.039,1.945,0.117c0.512,0.117,0.928,0.369,1.248,0.754
			c0.32,0.386,0.48,0.859,0.48,1.423c0,0.47-0.11,0.882-0.331,1.238c-0.221,0.355-0.536,0.624-0.946,0.807
			c-0.41,0.182-0.977,0.274-1.699,0.278l3.1,4.002h-1.065l-3.1-4.002h-0.487v4.002h-0.861V123.715z M128.65,124.559v2.93
			l1.484,0.012c0.575,0,1.001-0.055,1.277-0.164c0.275-0.109,0.49-0.284,0.646-0.524c0.154-0.24,0.231-0.509,0.231-0.806
			c0-0.289-0.078-0.552-0.234-0.788c-0.157-0.236-0.362-0.405-0.616-0.507c-0.255-0.102-0.678-0.152-1.268-0.152H128.65z"/>
		<path d="M135.025,123.715h0.879v3.234l3.445-3.234h1.157l-4.14,3.867l4.462,4.752h-1.147l-3.777-4.015v4.015h-0.879V123.715z"/>
	</g>
</g>
<g id="圖層_3">
	<g>
		<path d="M66.143,95.523l-4.2-4.2l10.882-32.295l26.31-14.247l13.551,13.551L98.614,84.817L66.143,95.523z M63.055,91.063
			l3.351,3.352l31.532-10.398l13.553-25.507L98.96,45.979L73.623,59.701L63.055,91.063z"/>
		<path d="M86.437,75.33c-1.103,0-2.138-0.43-2.917-1.209c-0.779-0.778-1.208-1.815-1.208-2.917c0-1.102,0.43-2.137,1.208-2.917
			c0.779-0.779,1.815-1.208,2.917-1.208c1.102,0,2.138,0.429,2.917,1.208c1.607,1.608,1.607,4.225,0,5.833
			C88.574,74.9,87.539,75.33,86.437,75.33z M86.437,68.049c-0.843,0-1.635,0.328-2.231,0.924c-0.596,0.596-0.924,1.388-0.924,2.23
			c0,0.843,0.329,1.635,0.924,2.231c1.192,1.191,3.269,1.191,4.462,0c1.229-1.23,1.229-3.231,0-4.461
			C88.071,68.377,87.28,68.049,86.437,68.049z"/>
		<rect x="73.682" y="69.763" transform="matrix(0.7069 0.7074 -0.7074 0.7069 80.7871 -27.9933)" width="0.971" height="27.42"/>
		<path d="M117.167,60.069L97.486,40.386l4.137-6.501l22.046,22.047L117.167,60.069z M98.722,40.25l18.582,18.582l4.824-3.07
			l-20.336-20.335L98.722,40.25z"/>
	</g>
</g>
</svg>
