<?xml version="1.0" encoding="utf-8"?>
<!-- Generator: Adobe Illustrator 16.0.0, SVG Export Plug-In . SVG Version: 6.00 Build 0)  -->
<!DOCTYPE svg PUBLIC "-//W3C//DTD SVG 1.1//EN" "http://www.w3.org/Graphics/SVG/1.1/DTD/svg11.dtd">
<svg version="1.1" xmlns="http://www.w3.org/2000/svg" xmlns:xlink="http://www.w3.org/1999/xlink" x="0px" y="0px" width="178px"
	 height="178px" viewBox="0 0 178 178" enable-background="new 0 0 178 178" xml:space="preserve">
<g id="圖層_2_1_">
	<circle fill-rule="evenodd" clip-rule="evenodd" fill="#FFFFFF" cx="89" cy="89" r="89"/>
</g>
<g id="圖層_1">
	<g>
		<path d="M46.294,123.544h0.861v3.615h4.389v-3.615h0.861v8.619h-0.861v-4.16h-4.389v4.16h-0.861V123.544z"/>
		<path d="M58.025,123.544l4.02,8.619h-0.93l-1.356-2.836h-3.713l-1.343,2.836h-0.961l4.072-8.619H58.025z M57.916,125.375
			l-1.477,3.12h2.947L57.916,125.375z"/>
		<path d="M63.386,132.163v-8.619h0.188l5.736,6.607v-6.607h0.85v8.619h-0.193l-5.689-6.526v6.526H63.386z"/>
		<path d="M73.242,126.544l-0.451-0.258c0.148-0.297,0.248-0.529,0.299-0.697s0.088-0.385,0.111-0.65h-0.516v-1.611h1.061v1.008
			c0,0.504-0.034,0.899-0.103,1.187S73.441,126.149,73.242,126.544z"/>
		<path d="M75.58,130.558l0.732-0.439c0.516,0.949,1.111,1.424,1.787,1.424c0.289,0,0.561-0.067,0.814-0.202s0.447-0.315,0.58-0.542
			s0.199-0.467,0.199-0.721c0-0.289-0.098-0.572-0.293-0.85c-0.27-0.383-0.762-0.844-1.477-1.383
			c-0.719-0.543-1.166-0.936-1.342-1.178c-0.305-0.406-0.457-0.846-0.457-1.318c0-0.375,0.09-0.717,0.27-1.025
			s0.433-0.552,0.759-0.729s0.681-0.267,1.063-0.267c0.406,0,0.786,0.101,1.14,0.302s0.728,0.571,1.122,1.11l-0.703,0.533
			c-0.324-0.43-0.601-0.713-0.829-0.85s-0.478-0.205-0.747-0.205c-0.348,0-0.632,0.105-0.853,0.316s-0.331,0.471-0.331,0.779
			c0,0.188,0.039,0.369,0.117,0.545s0.221,0.367,0.428,0.574c0.113,0.109,0.484,0.396,1.113,0.861
			c0.746,0.551,1.258,1.041,1.535,1.471s0.416,0.861,0.416,1.295c0,0.625-0.237,1.168-0.712,1.629s-1.052,0.691-1.731,0.691
			c-0.523,0-0.998-0.14-1.424-0.419S75.939,131.214,75.58,130.558z"/>
		<path d="M86.308,125.542h-0.879c0.16-0.711,0.467-1.258,0.92-1.641s0.988-0.574,1.605-0.574c0.449,0,0.868,0.103,1.257,0.308
			c0.388,0.205,0.689,0.481,0.902,0.829s0.32,0.711,0.32,1.09c0,0.742-0.369,1.33-1.108,1.764c0.415,0.168,0.754,0.414,1.02,0.738
			c0.375,0.457,0.563,0.969,0.563,1.535c0,0.488-0.129,0.954-0.387,1.397s-0.609,0.786-1.055,1.028
			c-0.445,0.242-0.943,0.363-1.494,0.363c-0.742,0-1.361-0.214-1.857-0.642s-0.82-1.056-0.973-1.884h0.844
			c0.148,0.559,0.361,0.963,0.639,1.213c0.355,0.316,0.809,0.475,1.359,0.475c0.625,0,1.127-0.188,1.506-0.563
			c0.379-0.375,0.569-0.814,0.569-1.318c0-0.336-0.096-0.65-0.285-0.943s-0.443-0.514-0.761-0.662s-0.812-0.24-1.479-0.275v-0.791
			c0.395,0,0.754-0.069,1.078-0.208s0.56-0.315,0.706-0.53s0.22-0.449,0.22-0.703c0-0.375-0.15-0.699-0.449-0.973
			s-0.677-0.41-1.134-0.41c-0.371,0-0.691,0.104-0.961,0.313S86.496,125.042,86.308,125.542z"/>
		<path d="M92.42,132.163v-8.619h1.787c1.289,0,2.225,0.104,2.807,0.311c0.836,0.293,1.488,0.801,1.959,1.523
			s0.707,1.584,0.707,2.584c0,0.863-0.188,1.623-0.561,2.279s-0.857,1.141-1.453,1.453s-1.43,0.469-2.504,0.469H92.42z
			 M93.246,131.349h0.996c1.191,0,2.018-0.074,2.479-0.223c0.648-0.211,1.158-0.59,1.529-1.139c0.371-0.548,0.557-1.219,0.557-2.011
			c0-0.831-0.201-1.542-0.604-2.131c-0.402-0.59-0.963-0.993-1.682-1.212c-0.539-0.164-1.428-0.246-2.666-0.246h-0.609V131.349z"/>
		<path d="M103.676,125.788h0.844l1.953,4.629l2.035-4.629h0.148l2.047,4.629l1.992-4.629h0.854l-2.77,6.375h-0.152l-2.039-4.564
			l-2.037,4.564h-0.152L103.676,125.788z"/>
		<path d="M117.527,125.624c0.982,0,1.795,0.355,2.441,1.066c0.586,0.648,0.881,1.416,0.881,2.303c0,0.891-0.311,1.669-0.932,2.335
			c-0.619,0.666-1.416,0.999-2.391,0.999c-0.979,0-1.777-0.333-2.398-0.999c-0.619-0.666-0.93-1.444-0.93-2.335
			c0-0.883,0.293-1.648,0.881-2.297C115.725,125.981,116.541,125.624,117.527,125.624z M117.523,126.427
			c-0.682,0-1.268,0.252-1.758,0.756s-0.734,1.113-0.734,1.828c0,0.461,0.111,0.891,0.334,1.289
			c0.225,0.398,0.525,0.706,0.906,0.923s0.797,0.325,1.252,0.325s0.873-0.108,1.254-0.325c0.379-0.217,0.682-0.524,0.904-0.923
			c0.225-0.398,0.336-0.828,0.336-1.289c0-0.715-0.246-1.324-0.738-1.828S118.201,126.427,117.523,126.427z"/>
		<path d="M122.057,125.788h0.838v0.932c0.25-0.367,0.514-0.642,0.791-0.823s0.566-0.272,0.867-0.272
			c0.227,0,0.469,0.072,0.727,0.217l-0.428,0.691c-0.172-0.074-0.316-0.111-0.434-0.111c-0.273,0-0.537,0.112-0.791,0.337
			s-0.447,0.573-0.58,1.046c-0.102,0.363-0.152,1.098-0.152,2.203v2.156h-0.838V125.788z"/>
		<path d="M125.971,123.327h0.82v5.034l2.955-2.573h1.205l-3.504,3.041l3.709,3.334h-1.154l-3.211-2.87v2.87h-0.82V123.327z"/>
		<path d="M135.205,126.485l-0.527,0.545c-0.439-0.426-0.867-0.639-1.287-0.639c-0.266,0-0.494,0.088-0.684,0.264
			c-0.191,0.176-0.285,0.381-0.285,0.615c0,0.207,0.078,0.404,0.234,0.592c0.156,0.191,0.486,0.416,0.986,0.674
			c0.611,0.316,1.025,0.621,1.244,0.914c0.217,0.297,0.324,0.631,0.324,1.002c0,0.523-0.184,0.967-0.553,1.33
			c-0.367,0.363-0.826,0.545-1.379,0.545c-0.367,0-0.719-0.08-1.053-0.24s-0.611-0.381-0.83-0.662l0.516-0.586
			c0.418,0.473,0.863,0.709,1.332,0.709c0.33,0,0.609-0.105,0.84-0.316c0.232-0.211,0.348-0.459,0.348-0.744
			c0-0.234-0.076-0.443-0.229-0.627c-0.154-0.18-0.498-0.406-1.035-0.68c-0.574-0.297-0.967-0.59-1.174-0.879
			s-0.311-0.619-0.311-0.99c0-0.484,0.164-0.887,0.496-1.207c0.33-0.32,0.748-0.48,1.252-0.48
			C134.02,125.624,134.609,125.911,135.205,126.485z"/>
	</g>
	<g>
		<path fill-rule="evenodd" clip-rule="evenodd" fill="#747474" d="M91.898,70.5c0.109,0.627,0.249,1.251,0.326,1.883
			c0.42,3.417,0.414,3.423,3.831,4.004c5.095,0.867,10.186,1.76,15.29,2.557c1.15,0.18,1.551,0.556,1.463,1.751
			c-0.371,5.016-0.664,10.037-0.963,15.057c-0.068,1.146-0.49,1.76-1.742,1.951c-4.965,0.763-9.914,1.625-14.865,2.469
			c-0.961,0.164-1.742-0.016-2.571-0.604c-4.868-3.45-4.892-3.429-4.979-9.383c-0.037-2.547-0.03-5.096-0.043-7.644
			c-0.344-1.537-0.147-3.096-0.152-4.642c-0.026-7.639-0.019-15.278-0.002-22.917c0.002-0.763-0.197-1.557,0.198-2.292
			c1.001-0.145,1.422,0.345,1.305,1.288c-0.076,0.603,0.145,1.078,0.429,1.558c0.423,0.687-0.111,1.542,0.39,2.216
			c0.088,0.1,0.101,0.208,0.039,0.325c0.413,0.693-0.111,1.547,0.384,2.226c0.087,0.1,0.101,0.209,0.04,0.328
			c0.418,0.691-0.115,1.548,0.389,2.225c0.297,1.806,0.594,3.612,0.891,5.419C91.94,68.975,91.486,69.804,91.898,70.5z"/>
		<path fill-rule="evenodd" clip-rule="evenodd" fill="#757575" d="M56.214,88.371c3.129,1.303,6.441,0.49,9.654,0.826
			c3.688,0.385,3.713,0.358,3.604-3.475c-0.125-4.318-0.258-8.636-0.466-12.95c-0.06-1.25,0.324-1.736,1.599-1.885
			c2.457-0.289,4.887-0.801,7.336-1.171c2.363-0.356,2.879,0.083,2.525,2.451c-0.722,4.827-1.559,9.638-2.358,14.454
			c-0.637,3.838-1.354,7.665-1.9,11.517c-0.202,1.431-0.625,2.064-2.206,2.103c-3.889,0.095-7.767,0.451-11.666,0.525
			c-4.78,0.09-8.306-2.947-12.39-4.576c-0.771-0.309-0.872-1.393-0.97-2.248c-0.321-0.842-0.449-1.715,0.398-2.279
			c1.989-1.326,4.036-2.563,6.264-3.461C55.844,88.118,56.044,88.238,56.214,88.371z"/>
		<path fill-rule="evenodd" clip-rule="evenodd" fill="#737373" d="M139.557,79.843c3.451-3.73,6.922-7.443,10.338-11.206
			c0.689-0.76,1.254-0.686,2.002-0.196c0.886,0.581,1.814,1.098,2.727,1.64c2.781,1.655,2.793,1.669,0.117,3.69
			c-1.976,1.493-3.955,2.983-5.988,4.394c-0.922,0.639-1.256,1.371-1.205,2.484c0.115,2.472,0.168,4.951,0.113,7.426
			c-0.029,1.277,0.407,2.063,1.482,2.758c3.725,2.405,7.387,4.907,11.016,7.683c-4.174,0.667-8.295,1.042-12.463,0.464
			c0.461-0.936,0.004-1.577-0.646-2.213c-2.299-2.254-4.474-4.649-7.373-6.188c-0.383-0.203-0.312-0.583-0.319-0.932
			C139.484,86.377,139.102,83.101,139.557,79.843z"/>
		<path fill-rule="evenodd" clip-rule="evenodd" fill="#767676" d="M40.892,98.225c0.475,0.178,0.866,0.457,1.222,1.094
			c-3.604,0-7.095,0.029-10.584-0.027c-0.604-0.009-1.372-0.203-1.774-0.604c-2.649-2.643-5.229-5.355-7.806-8.07
			c-0.418-0.44-0.264-1.073-0.267-1.633c-0.052-9.303-0.064-9.315,6.443-15.97c1.472-1.505,2.776-4.188,4.525-4.147
			c1.945,0.044,3.845,2.1,5.764,3.28c0.26,1.027-0.65,1.292-1.195,1.738c-1.95,1.593-4.051,2.988-6.097,4.454
			c-0.698,0.501-1.343,1.005-1.604,1.863c-0.75,3.056-0.463,6.159-0.21,9.216c0.114,1.379,1.512,2.266,2.642,3.108
			c2.075,1.547,4.272,2.92,6.327,4.493C38.919,97.914,39.695,98.525,40.892,98.225z"/>
		<path fill-rule="evenodd" clip-rule="evenodd" fill="#767676" d="M56.214,88.371c-2.078,1.153-4.146,2.323-6.237,3.451
			c-0.886,0.477-1.08,1.218-1,2.119c-1.512-4.033-3.008-8.072-4.545-12.095c-0.336-0.879,0.045-1.478,0.527-2.124
			c2.119-2.836,4.204-5.697,6.339-8.521c0.385-0.509,0.787-1.701,1.625-0.335c0.476,4.738,0.917,9.48,1.397,14.218
			c0.104,1.034,0.23,2.108,1.152,2.831C55.72,88.068,55.967,88.22,56.214,88.371z"/>
		<path fill-rule="evenodd" clip-rule="evenodd" fill="#747474" d="M127.219,76.886c0.121,6.927,0.2,13.856,0.393,20.782
			c0.043,1.595-0.459,2.098-2.043,2.055c-3.947-0.105-3.234,0.227-3.285-3.295c-0.095-6.361-0.143-12.725-0.209-19.089
			C123.711,76.297,125.466,76.606,127.219,76.886z"/>
		<path fill-rule="evenodd" clip-rule="evenodd" fill="#565656" d="M127.219,76.886c-1.656,0.819-3.437,0.222-5.145,0.453
			c-0.994-2.937-2.039-5.857-2.963-8.816c-0.584-1.869,0.018-2.594,1.971-2.611c2.613-0.024,5.229,0.024,7.84-0.055
			c1.238-0.038,1.431,0.382,1.094,1.484C129.045,70.511,128.146,73.703,127.219,76.886z"/>
		<path fill-rule="evenodd" clip-rule="evenodd" fill="#6F6F6F" d="M38.358,97.303c-2.764-1.947-5.488-3.953-8.312-5.809
			c-1.086-0.716-1.523-1.51-1.485-2.778c0.07-2.403,0.013-4.811,0.026-7.215c0.004-0.677-0.193-1.491,0.854-1.64
			c0.856-0.264,1.399,0.11,1.754,0.864c-0.052,3.036-0.079,6.073-0.171,9.107c-0.034,1.132,0.202,1.871,1.308,2.545
			c2.241,1.361,4.308,3.01,6.446,4.539C38.846,97.27,38.72,97.414,38.358,97.303z"/>
		<path fill-rule="evenodd" clip-rule="evenodd" fill="#9A9A9A" d="M31.195,80.725c-0.585-0.288-1.17-0.576-1.754-0.864
			c-0.59-0.989,0.333-1.132,0.84-1.528c2.685-2.097,5.706-3.751,8.134-6.186c2.563,1.469,2.579,1.558,0.303,3.203
			C36.219,77.154,33.704,78.934,31.195,80.725z"/>
		<path fill-rule="evenodd" clip-rule="evenodd" fill="#656565" d="M55.472,87.916c-1.319-0.012-1.654-1.01-1.754-1.987
			c-0.354-3.477-0.698-6.959-0.862-10.448c-0.072-1.524-1.262-3.105,0.066-4.614c0.872,0.46,0.993,1.299,1.078,2.152
			C54.492,77.985,54.982,82.95,55.472,87.916z"/>
		<path fill-rule="evenodd" clip-rule="evenodd" fill="#515151" d="M139.646,90.602c0.556-0.588,1.039-0.494,1.606,0.052
			c2.274,2.189,4.581,4.346,6.876,6.511c0.916,0.863,1.035,1.527-0.434,1.814c-2.822-2.574-5.594-5.201-8.123-8.07
			c-0.137-0.105-0.172-0.186-0.105-0.242C139.52,90.624,139.578,90.602,139.646,90.602z"/>
		<path fill-rule="evenodd" clip-rule="evenodd" fill="#797979" d="M87.689,52.691c-0.015,9.95-0.029,19.899-0.043,29.85
			c-0.494-1.867-0.288-3.778-0.297-5.666c-0.042-7.542-0.019-15.085,0-22.628C87.351,53.721,87.106,53.104,87.689,52.691z"/>
		<path fill-rule="evenodd" clip-rule="evenodd" fill="#747474" d="M139.646,90.602c-0.009,0.106-0.033,0.209-0.074,0.307
			c-0.488-3.688-0.733-7.375-0.016-11.065C139.587,83.429,139.616,87.016,139.646,90.602z"/>
		<path fill-rule="evenodd" clip-rule="evenodd" fill="#737373" d="M38.358,97.303c0.14-0.129,0.28-0.258,0.42-0.387
			c1.009-0.057,1.226,1.168,2.114,1.309C38.599,98.896,38.24,98.765,38.358,97.303z"/>
		<path fill-rule="evenodd" clip-rule="evenodd" fill="#797979" d="M89.813,57.752c-0.711-0.636-0.348-1.461-0.39-2.215
			C89.876,56.218,89.807,56.992,89.813,57.752z"/>
		<path fill-rule="evenodd" clip-rule="evenodd" fill="#797979" d="M90.235,60.304c-0.71-0.641-0.347-1.468-0.384-2.226
			C90.303,58.764,90.234,59.54,90.235,60.304z"/>
		<path fill-rule="evenodd" clip-rule="evenodd" fill="#797979" d="M90.664,62.856c-0.713-0.639-0.35-1.467-0.389-2.225
			C90.732,61.315,90.656,62.093,90.664,62.856z"/>
		<path fill-rule="evenodd" clip-rule="evenodd" fill="#797979" d="M91.898,70.5c-0.652-0.659-0.314-1.47-0.344-2.225
			C92.013,68.963,91.946,69.733,91.898,70.5z"/>
	</g>
</g>
</svg>
