<?xml version="1.0" encoding="utf-8"?>
<!-- Generator: Adobe Illustrator 16.0.0, SVG Export Plug-In . SVG Version: 6.00 Build 0)  -->
<!DOCTYPE svg PUBLIC "-//W3C//DTD SVG 1.1//EN" "http://www.w3.org/Graphics/SVG/1.1/DTD/svg11.dtd">
<svg version="1.1" xmlns="http://www.w3.org/2000/svg" xmlns:xlink="http://www.w3.org/1999/xlink" x="0px" y="0px" width="178px"
	 height="178px" viewBox="0 0 178 178" enable-background="new 0 0 178 178" xml:space="preserve">
<g id="圖層_3">
	<circle fill="#FFFFFF" cx="89" cy="89" r="89"/>
</g>
<g id="圖層_2">
	<g>
		<path d="M107.259,51.952l-7.816-7.816l4.294-4.552c0.637-0.424,1.271-0.64,1.889-0.64c1.1,0,1.733,0.691,1.762,0.721l0,0
			c0.002,0,2.504,2.379,4.119,4.119c1.545,1.664,1.076,2.979,0.611,3.443L107.259,51.952z M100.835,44.114l6.434,6.434l4.146-4.031
			c0.014-0.015,0.606-0.707-0.643-2.051c-1.596-1.719-4.078-4.079-4.104-4.103c-0.038-0.04-0.403-0.418-1.045-0.418
			c-0.401,0-0.835,0.147-1.286,0.44L100.835,44.114z"/>
		<path d="M75.597,84h-8.082v-8.457l27.496-27.498l8.338,8.201L75.597,84z M68.515,83h6.668l26.746-26.748l-6.912-6.799
			L68.515,75.957V83z"/>
		<path d="M77.654,103.281c-9.942,0-12.234-12.44-12.258-12.57l0.985-0.172c0.089,0.507,2.295,12.427,12.096,11.712
			c6.595-0.477,8.935-4.236,11.412-8.216c1.28-2.058,2.603-4.185,4.55-5.835c0.13-0.129,3.865-3.71,9.211-3.212
			c4.192,0.385,8.132,3.152,11.708,8.224l-0.815,0.576c-3.4-4.821-7.097-7.447-10.982-7.805c-4.901-0.45-8.413,2.923-8.447,2.956
			c-1.854,1.572-3.136,3.633-4.374,5.624c-2.5,4.018-5.085,8.172-12.188,8.686C78.245,103.271,77.946,103.281,77.654,103.281z"/>
	</g>
	<g>
		<path d="M37.355,128.715h0.861v3.615h4.389v-3.615h0.861v8.619h-0.861v-4.16h-4.389v4.16h-0.861V128.715z"/>
		<path d="M49.086,128.715l4.02,8.619h-0.93l-1.356-2.836h-3.713l-1.343,2.836h-0.961l4.072-8.619H49.086z M48.978,130.545
			l-1.478,3.121h2.947L48.978,130.545z"/>
		<path d="M54.447,137.334v-8.619h0.188l5.735,6.607v-6.607h0.851v8.619h-0.193l-5.688-6.527v6.527H54.447z"/>
		<path d="M64.303,131.715l-0.451-0.258c0.148-0.297,0.248-0.529,0.299-0.697s0.088-0.385,0.111-0.649h-0.517v-1.611h1.062v1.008
			c0,0.504-0.034,0.898-0.104,1.187C64.635,130.981,64.502,131.32,64.303,131.715z"/>
		<path d="M66.641,135.729l0.731-0.438c0.517,0.949,1.111,1.424,1.787,1.424c0.289,0,0.562-0.067,0.814-0.203
			c0.253-0.135,0.447-0.313,0.58-0.541c0.133-0.227,0.199-0.467,0.199-0.721c0-0.289-0.099-0.572-0.293-0.85
			c-0.271-0.384-0.763-0.845-1.478-1.384c-0.719-0.543-1.166-0.936-1.342-1.178c-0.305-0.406-0.457-0.846-0.457-1.318
			c0-0.375,0.09-0.717,0.27-1.024c0.181-0.308,0.434-0.553,0.76-0.73c0.325-0.177,0.681-0.266,1.063-0.266
			c0.406,0,0.786,0.1,1.141,0.301c0.354,0.201,0.728,0.572,1.121,1.111l-0.702,0.533c-0.324-0.431-0.602-0.713-0.829-0.851
			c-0.229-0.137-0.479-0.205-0.747-0.205c-0.349,0-0.632,0.105-0.854,0.316c-0.221,0.211-0.331,0.471-0.331,0.779
			c0,0.188,0.039,0.369,0.117,0.545s0.221,0.367,0.428,0.574c0.113,0.108,0.484,0.396,1.113,0.86
			c0.746,0.551,1.258,1.041,1.535,1.471c0.277,0.431,0.416,0.861,0.416,1.296c0,0.625-0.237,1.168-0.712,1.629
			c-0.476,0.461-1.052,0.69-1.731,0.69c-0.522,0-0.998-0.141-1.424-0.42S67,136.385,66.641,135.729z"/>
		<path d="M80.492,131.41h-0.826c0.023-0.851,0.309-1.549,0.854-2.094c0.545-0.548,1.218-0.818,2.019-0.818
			c0.793,0,1.436,0.256,1.926,0.768c0.489,0.513,0.734,1.115,0.734,1.812c0,0.488-0.116,0.947-0.351,1.375s-0.688,1.008-1.361,1.738
			l-2.146,2.313h3.977v0.832h-5.854l3.293-3.559c0.668-0.718,1.103-1.246,1.304-1.595c0.201-0.346,0.302-0.709,0.302-1.092
			c0-0.485-0.181-0.901-0.542-1.254c-0.36-0.35-0.804-0.522-1.327-0.522c-0.551,0-1.009,0.184-1.374,0.551
			C80.754,130.231,80.543,130.746,80.492,131.41z"/>
		<path d="M86.803,137.334v-8.619h1.787c1.289,0,2.224,0.104,2.806,0.312c0.836,0.293,1.49,0.801,1.961,1.522
			c0.471,0.723,0.705,1.584,0.705,2.584c0,0.863-0.187,1.623-0.559,2.279c-0.373,0.656-0.857,1.141-1.453,1.453
			c-0.597,0.312-1.433,0.469-2.505,0.469H86.803z M87.629,136.52h0.996c1.19,0,2.017-0.073,2.478-0.223
			c0.647-0.211,1.158-0.59,1.529-1.139s0.557-1.219,0.557-2.012c0-0.83-0.201-1.541-0.604-2.132
			c-0.403-0.59-0.964-0.991-1.683-1.211c-0.539-0.164-1.427-0.246-2.666-0.246h-0.608L87.629,136.52L87.629,136.52z"/>
		<path d="M101.891,128.715h0.885l1.762,6.211l2.472-6.211h0.178l2.442,6.211l1.791-6.211h0.879l-2.478,8.619h-0.16l-2.558-6.521
			l-2.607,6.521h-0.16L101.891,128.715z"/>
		<path d="M118.002,128.498c1.306,0,2.396,0.436,3.276,1.307s1.319,1.943,1.319,3.218c0,1.262-0.438,2.331-1.316,3.211
			c-0.878,0.879-1.946,1.317-3.21,1.317c-1.277,0-2.356-0.438-3.235-1.313c-0.881-0.875-1.319-1.935-1.319-3.176
			c0-0.828,0.2-1.597,0.601-2.304c0.401-0.707,0.947-1.262,1.64-1.662C116.447,128.697,117.195,128.498,118.002,128.498z
			 M118.039,129.336c-0.638,0-1.241,0.166-1.813,0.498s-1.018,0.779-1.338,1.344c-0.321,0.563-0.481,1.189-0.481,1.881
			c0,1.025,0.355,1.892,1.065,2.597s1.564,1.059,2.566,1.059c0.67,0,1.288-0.162,1.857-0.486c0.569-0.325,1.014-0.77,1.332-1.331
			c0.319-0.563,0.479-1.188,0.479-1.878c0-0.684-0.158-1.303-0.479-1.854c-0.318-0.553-0.768-0.996-1.347-1.328
			S118.688,129.336,118.039,129.336z"/>
		<path d="M124.373,128.715h1.718c0.957,0,1.604,0.039,1.944,0.117c0.513,0.117,0.929,0.369,1.248,0.754
			c0.32,0.385,0.48,0.859,0.48,1.422c0,0.471-0.11,0.883-0.331,1.238c-0.221,0.354-0.536,0.625-0.946,0.807
			c-0.41,0.183-0.977,0.275-1.699,0.279l3.101,4.002h-1.065l-3.1-4.002h-0.487v4.002h-0.86v-8.619H124.373z M125.234,129.559v2.931
			l1.484,0.012c0.575,0,1.001-0.055,1.276-0.164s0.49-0.285,0.646-0.524c0.154-0.24,0.23-0.509,0.23-0.806
			c0-0.289-0.077-0.553-0.233-0.789c-0.157-0.235-0.362-0.403-0.616-0.506c-0.255-0.102-0.678-0.152-1.268-0.152L125.234,129.559
			L125.234,129.559z"/>
		<path d="M131.609,128.715h0.879v3.234l3.445-3.234h1.157l-4.141,3.867l4.462,4.752h-1.146l-3.777-4.016v4.016h-0.879V128.715z"/>
		<path d="M137.81,135.729l0.731-0.438c0.517,0.949,1.111,1.424,1.787,1.424c0.289,0,0.562-0.067,0.814-0.203
			c0.253-0.135,0.447-0.313,0.58-0.541c0.133-0.227,0.199-0.467,0.199-0.721c0-0.289-0.099-0.572-0.293-0.85
			c-0.271-0.384-0.763-0.845-1.478-1.384c-0.719-0.543-1.166-0.936-1.342-1.178c-0.305-0.406-0.457-0.846-0.457-1.318
			c0-0.375,0.09-0.717,0.27-1.024c0.181-0.308,0.434-0.553,0.76-0.73c0.325-0.177,0.681-0.266,1.063-0.266
			c0.406,0,0.786,0.1,1.141,0.301c0.354,0.201,0.728,0.572,1.122,1.111l-0.703,0.533c-0.324-0.431-0.602-0.713-0.829-0.851
			c-0.229-0.137-0.479-0.205-0.747-0.205c-0.349,0-0.632,0.105-0.854,0.316c-0.221,0.211-0.331,0.471-0.331,0.779
			c0,0.188,0.039,0.369,0.117,0.545s0.222,0.367,0.428,0.574c0.113,0.108,0.484,0.396,1.113,0.86
			c0.746,0.551,1.258,1.041,1.535,1.471c0.277,0.431,0.416,0.861,0.416,1.296c0,0.625-0.237,1.168-0.712,1.629
			s-1.052,0.69-1.731,0.69c-0.522,0-0.998-0.141-1.424-0.42S138.169,136.385,137.81,135.729z"/>
	</g>
</g>
</svg>
