<?xml version="1.0" encoding="utf-8"?>
<!-- Generator: Adobe Illustrator 16.0.0, SVG Export Plug-In . SVG Version: 6.00 Build 0)  -->
<!DOCTYPE svg PUBLIC "-//W3C//DTD SVG 1.1//EN" "http://www.w3.org/Graphics/SVG/1.1/DTD/svg11.dtd">
<svg version="1.1" xmlns="http://www.w3.org/2000/svg" xmlns:xlink="http://www.w3.org/1999/xlink" x="0px" y="0px" width="178px"
	 height="178px" viewBox="0 0 178 178" enable-background="new 0 0 178 178" xml:space="preserve">
<g id="圖層_1">
	<circle fill="#FFFFFF" cx="89" cy="89" r="89"/>
	<g>
		<path d="M35.037,128.381h0.861v3.615h4.389v-3.615h0.861V137h-0.861v-4.16h-4.389V137h-0.861V128.381z"/>
		<path d="M43.275,128.381h0.861v5.203c0,0.617,0.012,1.002,0.035,1.154c0.043,0.34,0.143,0.625,0.299,0.854s0.396,0.42,0.721,0.574
			s0.65,0.23,0.979,0.23c0.285,0,0.559-0.061,0.82-0.182s0.48-0.289,0.656-0.504s0.305-0.475,0.387-0.779
			c0.059-0.219,0.088-0.668,0.088-1.348v-5.203h0.861v5.203c0,0.77-0.075,1.393-0.226,1.867s-0.451,0.887-0.902,1.238
			s-0.997,0.527-1.638,0.527c-0.695,0-1.291-0.166-1.787-0.498s-0.828-0.771-0.996-1.318c-0.105-0.336-0.158-0.941-0.158-1.816
			V128.381z"/>
		<path d="M51.109,137v-8.619h0.188l5.736,6.607v-6.607h0.85V137h-0.193L52,130.475V137H51.109z"/>
		<path d="M68.295,129.828l-0.668,0.633c-0.48-0.473-1.007-0.83-1.579-1.074s-1.13-0.367-1.673-0.367
			c-0.676,0-1.319,0.166-1.931,0.498s-1.085,0.783-1.421,1.352s-0.504,1.168-0.504,1.801c0,0.648,0.174,1.266,0.521,1.85
			s0.828,1.043,1.441,1.377s1.285,0.5,2.016,0.5c0.887,0,1.637-0.25,2.25-0.75s0.977-1.148,1.09-1.945H65.09v-0.832h3.715
			c-0.008,1.332-0.403,2.391-1.187,3.174s-1.831,1.174-3.144,1.174c-1.594,0-2.855-0.543-3.785-1.629
			c-0.715-0.836-1.072-1.803-1.072-2.9c0-0.816,0.205-1.576,0.615-2.279s0.973-1.252,1.688-1.648s1.523-0.596,2.426-0.596
			c0.73,0,1.418,0.133,2.063,0.396S67.682,129.246,68.295,129.828z"/>
		<path d="M71.43,131.381l-0.451-0.258c0.148-0.297,0.248-0.529,0.299-0.697s0.088-0.385,0.111-0.65h-0.516v-1.611h1.061v1.008
			c0,0.504-0.034,0.9-0.103,1.188S71.629,130.986,71.43,131.381z"/>
		<path d="M73.768,135.395l0.732-0.439c0.516,0.949,1.111,1.424,1.787,1.424c0.289,0,0.561-0.066,0.814-0.201
			s0.447-0.316,0.58-0.543s0.199-0.467,0.199-0.721c0-0.289-0.098-0.572-0.293-0.85c-0.27-0.383-0.762-0.844-1.477-1.383
			c-0.719-0.543-1.166-0.936-1.342-1.178c-0.305-0.406-0.457-0.846-0.457-1.318c0-0.375,0.09-0.717,0.27-1.025
			s0.433-0.551,0.759-0.729s0.681-0.268,1.063-0.268c0.406,0,0.786,0.102,1.14,0.303s0.728,0.57,1.122,1.109l-0.703,0.533
			c-0.324-0.43-0.601-0.713-0.829-0.85s-0.478-0.205-0.747-0.205c-0.348,0-0.632,0.105-0.853,0.316s-0.331,0.471-0.331,0.779
			c0,0.188,0.039,0.369,0.117,0.545s0.221,0.367,0.428,0.574c0.113,0.109,0.484,0.396,1.113,0.861
			c0.746,0.551,1.258,1.041,1.535,1.471s0.416,0.861,0.416,1.295c0,0.625-0.237,1.168-0.712,1.629s-1.052,0.691-1.731,0.691
			c-0.523,0-0.998-0.139-1.424-0.418S74.127,136.051,73.768,135.395z"/>
		<path d="M84.496,130.379h-0.879c0.16-0.711,0.467-1.258,0.92-1.641s0.988-0.574,1.605-0.574c0.449,0,0.868,0.104,1.257,0.309
			s0.689,0.48,0.902,0.828s0.319,0.711,0.319,1.09c0,0.742-0.369,1.33-1.107,1.764c0.414,0.168,0.754,0.414,1.02,0.738
			c0.375,0.457,0.563,0.969,0.563,1.535c0,0.488-0.129,0.955-0.387,1.398s-0.609,0.785-1.055,1.027s-0.943,0.363-1.494,0.363
			c-0.742,0-1.361-0.213-1.857-0.641s-0.82-1.057-0.973-1.885h0.844c0.148,0.559,0.361,0.963,0.639,1.213
			c0.355,0.316,0.809,0.475,1.359,0.475c0.625,0,1.127-0.188,1.506-0.563s0.568-0.814,0.568-1.318c0-0.336-0.095-0.65-0.284-0.943
			s-0.443-0.514-0.762-0.662s-0.812-0.24-1.479-0.275v-0.791c0.395,0,0.754-0.068,1.078-0.207s0.56-0.316,0.706-0.531
			s0.22-0.449,0.22-0.703c0-0.375-0.149-0.699-0.448-0.973s-0.677-0.41-1.134-0.41c-0.371,0-0.691,0.105-0.961,0.314
			S84.684,129.879,84.496,130.379z"/>
		<path d="M90.607,137v-8.619h1.787c1.289,0,2.225,0.104,2.807,0.311c0.836,0.293,1.489,0.801,1.96,1.523s0.706,1.584,0.706,2.584
			c0,0.863-0.187,1.623-0.56,2.279s-0.857,1.141-1.453,1.453S94.424,137,93.35,137H90.607z M91.434,136.186h0.996
			c1.191,0,2.018-0.074,2.479-0.223c0.648-0.211,1.158-0.59,1.529-1.139c0.371-0.547,0.557-1.219,0.557-2.01
			c0-0.832-0.201-1.543-0.604-2.131c-0.402-0.59-0.963-0.994-1.682-1.213c-0.539-0.164-1.428-0.246-2.666-0.246h-0.609V136.186z"/>
		<path d="M102.373,128.381h0.885l1.761,6.211l2.471-6.211h0.179l2.442,6.211l1.791-6.211h0.878L110.303,137h-0.16l-2.558-6.521
			L104.978,137h-0.161L102.373,128.381z"/>
		<path d="M118.483,128.164c1.306,0,2.397,0.436,3.277,1.307s1.319,1.943,1.319,3.217c0,1.262-0.438,2.332-1.316,3.211
			s-1.947,1.318-3.21,1.318c-1.278,0-2.357-0.438-3.236-1.313c-0.88-0.875-1.319-1.934-1.319-3.176c0-0.828,0.2-1.596,0.601-2.303
			c0.401-0.707,0.947-1.26,1.639-1.66C116.93,128.365,117.678,128.164,118.483,128.164z M118.521,129.002
			c-0.638,0-1.242,0.166-1.813,0.498c-0.571,0.334-1.018,0.781-1.338,1.344c-0.321,0.563-0.481,1.189-0.481,1.883
			c0,1.023,0.355,1.889,1.065,2.594c0.71,0.707,1.565,1.059,2.567,1.059c0.669,0,1.288-0.162,1.857-0.486s1.014-0.768,1.332-1.33
			c0.319-0.564,0.479-1.189,0.479-1.877c0-0.686-0.159-1.303-0.479-1.857c-0.318-0.553-0.768-0.994-1.347-1.328
			C119.785,129.168,119.171,129.002,118.521,129.002z"/>
		<path d="M124.855,128.381h1.717c0.957,0,1.605,0.039,1.945,0.117c0.512,0.117,0.928,0.369,1.248,0.754
			c0.32,0.387,0.48,0.859,0.48,1.424c0,0.469-0.11,0.881-0.331,1.238c-0.221,0.355-0.536,0.623-0.946,0.807
			c-0.41,0.182-0.977,0.273-1.699,0.277l3.1,4.002h-1.065l-3.1-4.002h-0.487V137h-0.861V128.381z M125.717,129.225v2.93l1.484,0.012
			c0.575,0,1.001-0.055,1.277-0.164c0.275-0.109,0.49-0.283,0.646-0.523c0.154-0.24,0.231-0.51,0.231-0.807
			c0-0.289-0.078-0.551-0.234-0.787c-0.157-0.236-0.362-0.406-0.616-0.508c-0.255-0.102-0.678-0.152-1.268-0.152H125.717z"/>
		<path d="M132.092,128.381h0.879v3.234l3.445-3.234h1.157l-4.14,3.867l4.462,4.752h-1.147l-3.777-4.014V137h-0.879V128.381z"/>
		<path d="M138.291,135.395l0.732-0.439c0.516,0.949,1.111,1.424,1.787,1.424c0.289,0,0.561-0.066,0.814-0.201
			s0.447-0.316,0.58-0.543s0.199-0.467,0.199-0.721c0-0.289-0.098-0.572-0.293-0.85c-0.27-0.383-0.762-0.844-1.477-1.383
			c-0.719-0.543-1.166-0.936-1.342-1.178c-0.305-0.406-0.457-0.846-0.457-1.318c0-0.375,0.09-0.717,0.27-1.025
			s0.433-0.551,0.759-0.729s0.681-0.268,1.063-0.268c0.406,0,0.786,0.102,1.14,0.303s0.728,0.57,1.122,1.109l-0.703,0.533
			c-0.324-0.43-0.601-0.713-0.829-0.85s-0.478-0.205-0.747-0.205c-0.348,0-0.632,0.105-0.853,0.316s-0.331,0.471-0.331,0.779
			c0,0.188,0.039,0.369,0.117,0.545s0.221,0.367,0.428,0.574c0.113,0.109,0.484,0.396,1.113,0.861
			c0.746,0.551,1.258,1.041,1.535,1.471s0.416,0.861,0.416,1.295c0,0.625-0.237,1.168-0.712,1.629s-1.052,0.691-1.731,0.691
			c-0.523,0-0.998-0.139-1.424-0.418S138.65,136.051,138.291,135.395z"/>
	</g>
</g>
<g id="圖層_3">
	<g>
		<polygon fill="#DDDDDD" points="89.438,47.577 78.438,53.702 111.313,55.202 		"/>
		<path fill="none" stroke="#000000" stroke-miterlimit="10" d="M78.438,89.452"/>
		<polygon fill="#AAAAAA" points="78.438,89.452 78.438,53.702 59.188,75.494 		"/>
		<polygon fill="#B2B2B2" points="68.813,99.239 78.438,89.452 59.188,75.494 		"/>
		<polygon fill="#4F4F4F" points="90.938,108.397 78.438,89.452 68.685,98.925 		"/>
		<polygon fill="#7C7C7C" points="115.438,85.911 99.188,69.064 78.438,89.452 		"/>
		<polygon fill="#606060" points="90.938,108.397 78.438,89.452 115.438,85.911 		"/>
		<polygon fill="#939393" points="78.438,53.702 78.438,89.452 99.188,69.064 		"/>
		<polygon fill="#C4C4C4" points="111.313,55.202 78.438,53.702 99.188,69.064 		"/>
		<polygon fill="#848484" points="115.438,85.911 99.188,69.064 111.313,55.202 		"/>
		<polygon fill="#515151" points="90.938,108.397 113.354,98.925 115.438,85.911 		"/>
		<polygon fill="#636363" points="115.438,85.911 116.813,76.479 111.313,55.202 		"/>
		<polygon fill="#DDDDDD" points="59.188,75.494 68.685,54.577 78.438,53.702 		"/>
		<polygon fill="#EAEAEA" points="89.438,47.577 68.685,54.577 78.438,53.702 		"/>
	</g>
</g>
</svg>
