<?xml version="1.0" encoding="utf-8"?>
<!-- Generator: Adobe Illustrator 16.0.0, SVG Export Plug-In . SVG Version: 6.00 Build 0)  -->
<!DOCTYPE svg PUBLIC "-//W3C//DTD SVG 1.1//EN" "http://www.w3.org/Graphics/SVG/1.1/DTD/svg11.dtd">
<svg version="1.1" xmlns="http://www.w3.org/2000/svg" xmlns:xlink="http://www.w3.org/1999/xlink" x="0px" y="0px" width="110px"
	 height="110px" viewBox="0 0 110 110" enable-background="new 0 0 110 110" xml:space="preserve">
<g id="圖層_1" display="none">
	<path display="inline" fill-rule="evenodd" clip-rule="evenodd" d="M72.361-8.458c9.332,0,18.664,0,27.996,0
		c12.826,4.762,19.025,13.799,17.96,27.625c-0.165,2.143,0.226,4.321,0.226,6.483c-0.003,23.795,0.299,47.596-0.203,71.381
		c-0.232,10.97-9.826,20.038-20.837,20.454c-17.128,0.646-34.276,0.871-51.418,0.965c-10.146,0.057-20.318-0.166-30.441-0.837
		c-12.351-0.819-21.546-10.972-22.268-23.39C-6.93,88.971-7.939,83.76-8.629,78.531c0-8.999,0-17.998,0-26.997
		c0.306-1.618,0.817-3.228,0.886-4.856c0.438-10.319,0.873-20.642,1.129-30.968C-6.272,1.961,2.182-6.52,16.041-6.795
		c10.99-0.218,21.981-0.358,32.968-0.666C56.796-7.679,64.576-8.119,72.361-8.458z M37.193,62.418
		c0.429-0.783,0.757-1.338,1.042-1.913c2.047-4.139-1.85-6.684-2.722-10.043c-2.607-10.048,2.795-22.755,11.55-26.954
		c11.763-5.642,25.479-3.085,32.048,6.312c4.834,6.916,3.715,14.582,1.63,22.097c-1.755,6.321-4.02,12.474-10.567,15.543
		c-3.898,1.826-7.869,1.757-11.283-1.051c-3.269-2.688-4.075-6.197-2.785-10.349c1.477-4.753,3.058-9.553,3.701-14.449
		c0.283-2.154-1-5.609-2.7-6.68c-2.733-1.72-6.313-0.417-7.502,2.715c-1.306,3.433-1.657,7.286-2.044,10.995
		c-0.403,3.859,0.026,7.828-0.604,11.633c-0.619,3.735-2.141,7.317-3.217,10.981c-3.357,11.439-3.844,18.769-1.213,26.534
		c2.357-5.739,4.455-10.36,6.156-15.124c1.681-4.705,2.959-9.555,4.496-14.612c12.776,8.891,23.556,7.918,31.814-3.001
		c7.77-10.271,9.298-22.095,4.722-34.021c-3.543-9.237-10.603-15.313-20.885-16.37c-4.449-0.457-9.014-0.421-13.477-0.031
		c-17.12,1.496-29.534,16.285-27.937,33.313C28.015,54.307,30.534,59.709,37.193,62.418z M-3.936,61.137
		c0.291,0.082,0.583,0.165,0.874,0.248c0.865-6.908,2.086-13.794,2.528-20.729C0.74,20.66,10.992,7.249,28.96-0.775
		c0.639-0.285,1.172-0.809,1.754-1.221c-4.703-1.056-9.16-1.1-13.614-1.033c-1.655,0.025-3.322,0.219-4.957,0.492
		C4.351-1.233-1.222,4.988-1.681,12.867c-0.261,4.482-0.488,8.966-0.694,13.451C-2.906,37.923-3.417,49.531-3.936,61.137z
		 M91.35-2.174c10.627,5.227,17.586,12.877,22.787,23.755C113.843,4.076,105.139-4.941,91.35-2.174z M-1.457,94.356
		c0.25,9.298,6.485,17.199,15.045,17.854c9.759,0.747,19.619,0.173,29.436,0.173C26.393,111.522,8.953,112.119-1.457,94.356z
		 M55.653,10.945c-12.414-1.156-25.609,8.07-28.176,19.828C33.79,19.257,42.853,13.095,55.653,10.945z M88.866,66.083
		c6.752-5.062,9.929-18.163,7.106-28.21c-0.457,4.292-0.472,9.494-1.688,14.397C93.087,57.095,90.67,61.619,88.866,66.083z
		 M113.188,97.498c-4.512,4.839-9.43,10.112-13.549,14.528C106.402,111.532,113.02,104.722,113.188,97.498z M37.916,89.06
		c-0.177,0.011-0.353,0.021-0.53,0.032c-0.099,2.117-0.689,4.366-0.166,6.315c0.594,2.208,2.188,4.146,3.348,6.203
		c2.093-1.46,4.186-2.919,6.277-4.379c-0.637-0.714-1.275-1.428-1.914-2.142c-0.988,2.363-1.976,4.728-2.963,7.092
		c-0.781-0.59-1.563-1.18-2.344-1.769C39.056,96.629,38.485,92.844,37.916,89.06z"/>
</g>
<g id="圖層_2" display="none">
	<path display="inline" fill-rule="evenodd" clip-rule="evenodd" d="M-9.492,78.498c0-5.999,0-11.999,0-17.998
		c0.271-1.445,0.752-2.888,0.78-4.338c0.261-13.64,0.402-27.281,0.661-40.921C-7.78,0.985-0.009-7.246,14.105-7.493
		c25.599-0.449,51.206-0.391,76.806-0.823c16.586-0.28,26.493,8.715,26.428,25.309c-0.1,25.783-0.558,51.564-0.899,77.347
		c-0.16,12.073-8.717,21.678-20.718,22.896c-6.942,0.704-13.951,1.255-20.918,1.141c-20.623-0.34-41.246-0.896-61.857-1.66
		c-12.375-0.457-21.18-10.043-21.447-22.42C-8.615,89.024-9.149,83.763-9.492,78.498z M77.719,114.62
		c5.898-0.355,11.505-0.663,17.108-1.04c9.642-0.648,17.117-8.269,17.338-17.944c0.396-17.307,0.8-34.615,0.858-51.924
		c0.031-8.977-0.792-17.952-1.009-26.934c-0.344-14.206-7.278-20.86-21.494-20.628C70.703-3.525,50.884-3.354,31.065-3.082
		c-6.481,0.089-12.988-0.024-19.438,0.511C2.389-1.803-2.964,5.415-2.805,14.508c0.207,11.778-0.61,23.571-0.672,35.36
		c-0.08,15.451-0.23,30.92,0.398,46.351c0.326,7.986,7.784,15.675,15.552,16.004c13.911,0.59,27.865,0.166,41.615,0.166
		c0-16.806,0.051-34.248-0.137-51.688c-0.01-0.943-1.922-2.54-3.095-2.69c-8.104-1.036-8.105-0.938-7.804-9.052
		c0.074-1.997-0.396-4.143,0.199-5.952c0.494-1.5,2.026-3.485,3.379-3.735c7.337-1.352,7.367-1.189,7.476-8.823
		c0.204-14.392,5.801-22.044,18.105-23.99c4.065-0.644,8.416-0.814,12.445-0.108c11.409,1.998,9.872-1.707,9.813,10.938
		c-0.035,7.624-0.11,7.623-7.578,6.743c-5.737-0.677-9.261,1.264-10.037,5.525c-1.866,10.251-1.334,10.867,9.123,10.528
		c0.831-0.027,1.694,0.02,2.483-0.188c3.681-0.967,4.844,1.101,5.107,4.194c0.155,1.822,0.176,3.659,0.215,5.49
		c0.177,8.257-1.986,10.97-9.399,8.413c-0.602-0.207-1.331-0.006-1.988-0.092c-3.36-0.438-4.771,0.778-4.741,4.394
		C77.796,79.423,77.719,96.553,77.719,114.62z M91.003,20.561c-0.791-11.651,0.97-9.553-9.742-10.875
		c-2.738-0.338-5.643,0.153-8.407,0.632c-8.404,1.456-12.852,5.964-14.122,14.428c-0.64,4.262-0.617,8.629-1.356,12.868
		c-0.268,1.534-1.593,3.617-2.931,4.111c-7.808,2.889-7.959,2.932-6.289,11.537c0.905,0.071,1.873,0.175,2.845,0.22
		c7.673,0.349,7.417,0.344,7.371,8.173c-0.089,15.472,0.114,30.945,0.255,46.419c0.016,1.775,0.399,3.549,0.618,5.369
		c4.841,0,9.236,0,14.085,0c0-2.708-0.009-5.006,0.002-7.304c0.068-14.813,0.1-29.626,0.232-44.438
		c0.061-6.753,0.478-7.08,7.05-7.168c8.37-0.111,9.964-2.245,7.965-10.894c-1.263-0.066-2.574-0.172-3.887-0.197
		c-12.926-0.248-13.271-0.653-11.404-13.497c1.008-6.932,3.557-9.226,10.492-9.376C86.063,20.52,88.351,20.561,91.003,20.561z"/>
</g>
<g id="圖層_3">
	<g>
		<path fill-rule="evenodd" clip-rule="evenodd" fill="#040000" d="M104.784,23.726C103.82,14.31,96.866,9.762,88.202,7.862
			C76.585,5.314,64.815,3.711,52.956,2.753c-1.306-0.105-2.87,0.63-3.887-0.869c-2.835,0-5.669,0-8.504,0
			c-4.627,1.782-9.645,1.326-14.387,2.562c-7.716,2.012-14.705,4.845-19.22,12.092c-2.65,4.253-3.277,8.699-2.822,13.423
			c0.423,4.392,0.507,8.76,0.064,13.143c0,0,0,0,0,0c-1.294,8.083-2.373,16.187-2.035,24.408C1.741,77.93,2.777,88.099,8.603,97.085
			c4.852,7.483,11.672,11.761,20.948,11.177c6.477-0.409,12.952-0.845,19.429-1.27c11.229,0.417,22.163-2.35,33.285-3.08
			c15.479,0.087,22.578-6.494,23.829-21.941c0.398-4.934,0.938-9.862,1.608-14.767C109.71,52.511,106.261,38.166,104.784,23.726z
			 M97.593,77.878c-0.25,13.383-3.637,17.79-16.342,20.731c-10.954,0.122-21.909,0.244-32.863,0.365
			c-5.927-0.192-11.891-0.043-17.774-0.651c-11.041-1.144-15.217-5.963-15.599-17.178c-0.168-4.924-0.45-9.837-1.482-14.674
			c-0.858-9.426,0.524-18.809,0.539-28.218c0.047-0.421,0.147-0.845,0.133-1.265c-0.508-15.521,6.69-19.583,19.474-20.516
			c15.969-1.165,31.976-1.324,47.975-0.955c9.179,0.211,15.608,6.881,15.736,16.106c0.079,5.655-0.184,11.327-0.545,16.975
			C96.219,58.388,97.775,68.104,97.593,77.878z"/>
		<path fill-rule="evenodd" clip-rule="evenodd" fill="#040000" d="M81.656,20.753c-16.383,0.002-32.742-2.332-49.157-0.169
			c-10.998,1.448-14.586,5.127-14.525,16.206c-0.443,10.083-0.941,20.166,0.054,30.245c0.402,5.78,0.646,11.577,1.254,17.336
			c0.546,5.168,3.489,7.97,8.501,8.403c6.615,0.574,13.243,0.993,19.865,1.479c10.773,1.416,21.476,0.94,32.119-1.172
			c8.295-0.63,12.502-4.116,12.586-11.329c0.192-16.69,0.179-33.387-0.016-50.078C92.263,25.238,88.069,20.752,81.656,20.753z
			 M72.642,68.924c-5.277,7.857-12.771,10.673-21.688,8.337c-9.25-2.425-14.868-8.854-16.742-18.294
			c-1.546-7.781,3.164-16.423,11.443-21.347c0.281-0.021,0.592,0.031,0.838-0.074c8.446-3.599,16.45-4.119,23.09,3.591
			C77.813,50.696,78.524,57.566,72.642,68.924z M78.223,38.864c-3.488-0.061-6.83-3.364-6.895-6.816
			c-0.068-3.595,3.01-6.369,7.04-6.345c3.654,0.021,6.477,2.789,6.517,6.389C84.928,35.866,81.915,38.929,78.223,38.864z"/>
	</g>
	<path fill-rule="evenodd" clip-rule="evenodd" fill="#040000" d="M52.591,41.332c-8.889,1.977-14.178,8.011-14.016,15.99
		C38.732,65,44.322,71.114,52.473,72.518c8.318,1.435,14.857-2.182,17.837-9.862C74.992,50.57,66.038,39.792,52.591,41.332z"/>
</g>
<g id="圖層_4" display="none">
	<path display="inline" fill-rule="evenodd" clip-rule="evenodd" d="M92.227,1.835c-15.638,0-31.273,0-46.912,0
		c-2.485,1.255-5.168,0.736-7.766,0.782c-5.973,0.107-11.956-0.121-17.921,0.116C10.968,3.077,4.015,9.1,3.437,17.707
		c-0.8,11.906-0.734,23.87-1.057,35.809c-0.056,2.053,0.513,4.178-0.626,6.123c0,5.026,0,10.053,0,15.079
		c1.225,4.353,0.759,8.82,0.841,13.242c0.193,10.368,7.611,18.712,17.978,18.709c17.169-0.004,34.277,1.646,51.435,1.486
		c5.85-0.055,11.709-0.437,17.539-0.938c9.902-0.854,17.262-8.814,17.745-18.461c1.05-20.908,0.833-41.822,0.954-62.743
		C108.315,13.883,104.008,5.633,92.227,1.835z M103.316,19.962c-2.004-6.165-6.824-11.904-13.301-14.037
		C97.945,6.798,102.304,11.563,103.316,19.962z M6.651,50.64c0.501-9.852,0.11-18.852,0.859-29.629
		C8.038,13.41,11.775,7.646,19.527,6.714c11.005-1.323,22.036,0.278,28.37-0.176C41.563,6.993,12.854,8.12,9.777,28.503
		c-1.313,8.694-3.571,36.099-3.414,52.189C5.841,70.692,6.14,60.678,6.651,50.64z M22.152,103.261
		c-7.278-0.51-13.729-5.783-14.963-12.85c2.001,6.434,9.469,11.129,16.313,11.608c10.178,0.713,19.02,1.653,29.2,1.98
		C42.521,103.673,32.329,103.974,22.152,103.261z M71.296,64.771c-0.071,11.854-0.189,23.707-0.095,35.559
		c0.023,2.758-0.586,3.884-3.569,4.029c-8.707,0.424-8.759,0.557-8.92-8.151c-0.107-5.853-0.021-11.708-0.021-17.563
		c-0.017,0-0.033,0-0.049,0c0-6.551-0.25-13.116,0.093-19.649c0.207-3.967-1.324-5.221-4.988-5.285
		c-1.462-0.026-4.104,1.264-4.176-1.793c-0.067-2.828-1.2-6.62,3.324-7.163c4.307-0.516,5.29-2.79,5.111-6.732
		c-0.137-3.017,0.473-6.105,1.035-9.109C60.266,22.35,64,18.909,70.676,17.54c4.051-0.831,8.014-0.518,12.047,0.039
		c2.058,0.283,2.708,1.078,2.937,3.135c0.614,5.562,0.745,5.547-4.869,5.464c-6.575-0.097-8.831,1.807-9.736,8.219
		c-0.097,0.69-0.223,1.377-0.291,2.07c-0.788,7.97-0.181,8.662,7.752,8.845c0.559,0.013,1.134-0.07,1.67,0.042
		c1.724,0.358,4.593-1.241,4.361,2.547c-0.189,3.066,0.194,6.293-4.313,6.735C71.365,55.505,71.353,55.586,71.296,64.771z
		 M89.77,104.017c6.248-2.956,11.759-8.518,13.771-13.192C102.734,97.892,97.006,103.313,89.77,104.017z"/>
</g>
</svg>
