<?xml version="1.0" encoding="utf-8"?>
<!-- Generator: Adobe Illustrator 16.0.0, SVG Export Plug-In . SVG Version: 6.00 Build 0)  -->
<!DOCTYPE svg PUBLIC "-//W3C//DTD SVG 1.1//EN" "http://www.w3.org/Graphics/SVG/1.1/DTD/svg11.dtd">
<svg version="1.1" xmlns="http://www.w3.org/2000/svg" xmlns:xlink="http://www.w3.org/1999/xlink" x="0px" y="0px" width="700px"
	 height="250px" viewBox="0 0 700 250" enable-background="new 0 0 700 250" xml:space="preserve">
<g id="圖層_1" display="none">
	<path display="inline" fill="none" stroke="#000000" stroke-miterlimit="10" d="M300.592,131.161c-3.602,3.779-1,20.334,0,24.168
		c1.001,3.832,6.834,13.291,14.084,15.166c0,0,33.125,1.25,44.125-4.125c0,0,11.25-3.75,13.375-13.75c0,0,1.125-14.5,0-20.5
		c0,0-0.25-13.125-19.875-15.625c0,0-22-3-35.75,3.5C316.551,119.995,306.818,124.629,300.592,131.161z"/>
	<path display="inline" fill="none" stroke="#000000" stroke-miterlimit="10" d="M295.385,131.286c0,0,1-12.749,30.5-18.874
		c0,0,30.625-3.25,44,6.75c0,0,7.036,5.625,7,16.249c0,0,16.75-9.624,29.875-0.625c0,0-0.5-12.749,9.375-17.624
		c0,0,10.75-6.875,29.875-7.25l-3.375-2.5c0,0-53.709-21.917-62.209-23.417c0,0-10.625-3.25-16,4.125c0,0-3.083,4.124,0.667,9.042
		l4.5,5.75c0,0,1.25,3-3,1.833c0,0-6.084-5.083-6.667-6.583s-2.084-5.084-1.25-9.25c0,0,1.334-6.584,9.667-9.084
		c0,0,8.083-1.334,15,1.334c6.917,2.666,51.833,18.75,54.333,20.75c0,0,14.625,5.896,15.438,8.646c0,0,3.5,0.125,5.438,0.438
		c0,0,16,1.625,20.375,5.875c0,0,6.625,5.5,8,14c0,0,1.75,10.875,0,23c0,0-4.625,12.875-18.25,14.875c0,0-29,3.625-47.125,0
		c0,0-14.063-4.25-15.541-16.666l-0.459-13.584c0,0-11.709-7.75-28.459,1.334l-1,15c0,0-1.749,10.5-10.582,13.333
		c-8.834,2.833-26.959,7.333-33.084,6.958c0,0-15,0.294-17.375,0.021c0,0-15.625-1.063-19.666-21.48l-1.043-17.416l-12.75-8.868
		c0,0-40-29.299-43.75-29.632l-6.041-2.5c0,0-3.375-1.438-7.625,2.625c0,0-3.625,3.563-3.813,6.938c0,0-0.438,5.938,0.875,9.875
		s4.5,7.313,4.5,7.313s2.625,2.563,1.813,3.938s-1.938,1.188-1.938,1.188s-1.938-1.188-3.313-2.75s-5.688-8.938-5.813-12
		s-0.75-7.875,1.25-12.313c0,0,2.875-5.563,7.313-8c0,0,5.938-2.188,11.313,0.375S277.676,117.244,295.385,131.286z"/>
	<path display="inline" fill="none" stroke="#000000" stroke-miterlimit="10" d="M421.926,118.495c0,0-9.75,6.25-11,18.5
		c0,0-2,19.625,5.5,24.625s8.875,5.125,8.875,5.125s28.125,1.5,39.375-1.75c0,0,13-1.375,17.5-14.5c0,0,2.25-12.75-1.125-22.375
		c0,0-2.625-9-15.875-11.875C465.176,116.245,441.676,109.87,421.926,118.495z"/>
	<path display="inline" fill="#FFFFFF" stroke="#000000" stroke-miterlimit="10" d="M446.01,109.912c0,0,3.659,0.408,7.384,0.657"/>
</g>
<g id="圖層_1_拷貝">
	<path d="M277.31,236.248C277.309,236.248,277.31,236.248,277.31,236.248c-12.323,0-20.867-0.316-20.953-0.319l-0.269-0.04
		c-18.269-4.725-33.764-28.471-36.605-39.346c-2.589-9.929-9.32-52.344,0.31-62.447c15.76-16.534,40.571-28.451,40.821-28.57
		c18.788-8.883,43.591-10.748,61.091-10.748c17.102,0,30.103,1.748,30.232,1.766c50.234,6.398,51.463,40.488,51.47,40.832
		c2.826,14.989,0.114,50.574-0.005,52.081c-5.497,25.922-33.567,35.555-34.761,35.953
		C349.383,234.832,303.145,236.248,277.31,236.248z M256.591,233.399c1.144,0.042,9.297,0.313,20.718,0.313
		c25.616,0,71.419-1.383,90.375-10.646c0.433-0.155,28.048-9.652,33.216-33.973c0.005-0.2,2.781-36.595-0.006-51.462
		c-0.052-1.52-1.301-32.464-49.288-38.577c-0.139-0.021-12.983-1.743-29.901-1.743c-17.241,0-41.646,1.822-60.005,10.501
		c-0.242,0.114-24.64,11.839-40.073,28.028c-8.298,8.708-2.571,49.02,0.31,60.062C224.131,204.312,238.102,228.521,256.591,233.399z
		"/>
	<path d="M270.477,248c-7.157,0-11.497-0.1-13.266-0.303c-0.348-0.022-40.632-3.358-50.943-55.457l-2.627-43.695l-31.811-22.127
		C131.168,96.634,68.272,52.135,61.556,51.539l-0.373-0.092l-15.311-6.336c-0.041-0.018-8.063-3.062-17.964,6.397
		c-0.076,0.074-8.831,8.782-9.274,16.737c-0.013,0.171-1.051,14.939,2.155,24.558c3.195,9.586,11.046,17.982,11.125,18.066
		c0.716,0.698,7.256,7.274,4.763,11.492c-1.949,3.299-4.597,3.655-5.646,3.655c-0.358,0-0.564-0.039-0.564-0.039l-0.454-0.169
		c-0.207-0.129-5.115-3.158-8.686-7.215c-3.538-4.02-14.714-23.065-15.046-31.199c-0.042-1.024-0.106-2.124-0.174-3.292
		c-0.452-7.784-1.071-18.449,3.452-28.487c0.335-0.651,7.626-14.575,19.08-20.867c0.424-0.171,6.461-2.361,14.433-2.361
		c5.652,0,10.831,1.104,15.395,3.28c14.12,6.731,103.276,62.09,148.189,97.328c1.982-7.697,13.376-33.391,77.9-46.787
		c0.245-0.032,12.429-1.305,28.977-1.305c26.745,0,62.954,3.233,83.56,18.638c0.76,0.606,17.435,14.236,18.221,40.097
		c5.487-2.814,22.234-10.492,41.558-10.492c11.831,0,22.477,2.918,31.684,8.683c0.302-7.826,2.978-32.884,24.437-43.478
		c0.151-0.104,26.575-16.677,72.583-18.403l-5.483-4.059c-5.172-2.109-136.409-55.536-157.263-59.217
		c-0.208-0.053-5.989-1.789-13.373-1.789c-7.927,0-18.862,2.037-25.934,11.742c-0.302,0.407-7.106,9.886,1.673,21.402l11.569,14.854
		c0.128,0.312,1.228,3.104-0.161,5.186c-1.354,2.032-4.312,2.44-8.95,1.171l-0.476-0.25c-1.604-1.34-15.717-13.208-17.266-17.199
		l-0.181-0.459c-1.674-4.276-5.156-13.175-3.05-23.693c0.144-0.713,3.779-17.509,25.38-23.988c0.371-0.072,5.465-0.898,12.799-0.898
		c6.779,0,16.801,0.747,26.038,4.312c4.515,1.739,15.447,5.746,29.288,10.818c51.986,19.052,103.127,37.953,108.589,41.84
		c4.338,1.753,35.039,14.371,39.327,21.791c2.296,0.097,9.026,0.426,13.158,1.094c1.6,0.159,41.044,4.277,52.321,15.232
		c0.626,0.515,17.123,14.427,20.643,36.189c0.046,0.279,4.416,28.109,0.004,58.677l-0.062,0.247
		c-0.12,0.334-12.382,33.407-47.264,38.527c-0.354,0.045-33.179,4.097-68.238,4.097c-20.63,0-38.001-1.384-51.631-4.109
		c-0.483-0.138-36.6-11.409-40.399-43.331l-1.148-33.852c-2.505-1.466-13.484-7.27-29.911-7.27
		c-13.086,0-26.457,3.602-39.758,10.707l-2.487,37.317c-0.06,0.398-4.839,27.582-27.699,34.916
		c-20.674,6.628-68.085,18.677-84.315,17.692C301.241,247.653,283.503,248,270.477,248z M62.003,49.042
		c10.683,1.792,100.97,67.747,111.299,75.313l32.793,22.809l2.681,44.755c9.9,49.962,47.088,53.143,48.667,53.255
		c1.707,0.194,6.073,0.291,13.033,0.291c13,0,30.714-0.346,30.891-0.349c0.691,0.039,1.326,0.058,2.003,0.058
		c16.427-0.003,58.533-10.271,81.486-17.633c21.371-6.854,25.912-32.536,25.957-32.793l2.566-38.592l0.614-0.332
		c13.878-7.526,27.867-11.344,41.579-11.344c19.511,0,31.359,7.693,31.854,8.02l0.545,0.361l1.185,35.082
		c3.6,30.188,38.14,40.963,38.488,41.069c13.352,2.664,30.553,4.029,51.018,4.029c34.902,0,67.571-4.034,67.899-4.073
		c32.363-4.753,44.377-34.677,45.174-36.761c4.328-30.137,0.028-57.501-0.014-57.776c-3.367-20.798-19.672-34.572-19.836-34.708
		c-10.72-10.408-50.558-14.563-50.96-14.606c-4.852-0.779-13.61-1.099-13.697-1.102l-0.913-0.034l-0.258-0.874
		c-1.374-4.65-24.272-15.407-38.383-21.095l-0.319-0.186c-4.539-3.634-69.333-27.377-108.043-41.564
		c-13.854-5.078-24.794-9.087-29.328-10.835c-8.876-3.421-18.563-4.141-25.127-4.141c-7.111,0-12.178,0.821-12.229,0.829
		c-19.93,5.991-23.33,21.375-23.464,22.027c-1.961,9.783,1.339,18.214,2.926,22.266l0.181,0.466
		c0.979,2.517,10.433,11.062,16.315,15.993c1.428,0.376,2.648,0.566,3.629,0.566c0.802,0,1.849-0.134,2.274-0.765
		c0.5-0.742,0.188-2.081-0.015-2.668l-11.287-14.421c-9.979-13.087-1.792-24.343-1.707-24.456
		c7.689-10.554,19.459-12.771,27.973-12.771c7.782,0,13.715,1.787,13.965,1.863c21.278,3.745,152.213,57.12,157.776,59.389
		l0.275,0.156l11.542,8.546l-3.717,0.074c-47.505,0.931-74.79,18.004-75.061,18.175c-24.135,11.925-23.189,43.237-23.177,43.552
		l0.099,2.521l-2.084-1.428c-9.212-6.316-20.048-9.52-32.203-9.52c-22.486,0-41.971,11.047-42.166,11.158l-1.905,1.094l0.007-2.198
		c0.09-26.013-17.093-40.049-17.266-40.188c-20.014-14.962-55.646-18.108-82.008-18.108c-16.405,0-28.465,1.257-28.585,1.27
		c-72.598,15.081-76.145,46.367-76.172,46.681l-0.205,2.346l-1.847-1.458C162.497,101.209,71.613,44.743,57.376,37.956
		c-4.221-2.011-9.032-3.032-14.304-3.032c-7.497,0-13.328,2.106-13.386,2.127c-10.594,5.836-17.773,19.532-17.844,19.667
		c-4.239,9.411-3.641,19.715-3.204,27.239c0.069,1.181,0.134,2.297,0.176,3.334c0.305,7.482,11.125,25.887,14.417,29.629
		c2.854,3.242,6.773,5.868,7.834,6.554c0.81-0.037,2.24-0.389,3.429-2.4c1.174-1.987-2.449-6.537-4.387-8.431
		c-0.374-0.394-8.346-8.91-11.722-19.039c-3.369-10.104-2.326-24.896-2.28-25.523c0.495-8.917,9.65-18.009,10.039-18.393
		c11.367-10.869,20.545-6.986,20.71-6.915L62.003,49.042z"/>
	<path d="M573.445,227.3c-0.003,0-0.003,0-0.004,0c-20.033,0-36.56-0.868-36.724-0.878c-0.684-0.06-4.781-0.968-23.13-13.2
		c-19.42-12.946-14.707-61.533-14.497-63.595c3.193-31.293,28.204-47.666,28.456-47.826c17.736-7.765,38.33-11.653,61.383-11.653
		c27.572,0,49.037,5.734,49.25,5.794c33.866,7.346,40.84,30.003,41.121,30.966c8.545,24.362,3.116,55.949,2.881,57.283
		c-11.584,33.832-45.131,37.756-45.467,37.79C621.595,226.37,593.942,227.3,573.445,227.3z M536.966,223.902
		c0.104,0,16.543,0.863,36.476,0.863c20.334,0,47.734-0.913,62.787-5.262c0.541-0.076,32.508-3.863,43.508-35.943
		c0.007-0.129,5.493-32.087-2.849-55.881c-0.087-0.281-6.93-22.251-39.309-29.277c-0.273-0.072-21.433-5.72-48.649-5.72
		c-22.701,0-42.953,3.819-60.192,11.346c-0.064,0.062-24.06,15.811-27.127,45.855c-0.049,0.49-4.771,49.126,13.384,61.229
		C532.914,223.061,536.808,223.875,536.966,223.902L536.966,223.902z"/>
	<g>
		<path fill="#FFFFFF" d="M589.271,81.114c0,0,9.274,1.034,18.714,1.665"/>
		<path d="M607.901,84.043c-9.361-0.626-18.678-1.66-18.771-1.67l0.283-2.52c0.091,0.01,9.355,1.039,18.656,1.66L607.901,84.043z"/>
	</g>
</g>
</svg>
