<?xml version="1.0" encoding="utf-8"?>
<!-- Generator: Adobe Illustrator 16.0.0, SVG Export Plug-In . SVG Version: 6.00 Build 0)  -->
<!DOCTYPE svg PUBLIC "-//W3C//DTD SVG 1.1//EN" "http://www.w3.org/Graphics/SVG/1.1/DTD/svg11.dtd">
<svg version="1.1" id="圖層_3" xmlns="http://www.w3.org/2000/svg" xmlns:xlink="http://www.w3.org/1999/xlink" x="0px" y="0px"
	 width="1280px" height="200px" viewBox="0 0 1280 200" enable-background="new 0 0 1280 200" xml:space="preserve">
<path fill="#4C4C4C" d="M1019.168,150.842c-0.267-2.242-0.018-4.688,5.904-9.909c6.894-6.082,36.466-18.479,37.725-19.002
	l1.113-0.469l0.801,0.904c0.056,0.064,5.593,6.29,11.25,8.271c2.636,0.923,6.342,1.45,10.166,1.45c3.904,0,7.43-0.576,9.195-1.506
	c3.657-1.925,13.307-9.498,23.895-38.197c9.504-25.759,17-42.837,20.565-46.854c0.479-0.54,1.831-2.684,3.261-4.951
	c7.934-12.575,16.311-24.741,22.165-23.918l0.386,0.105c0.63,0.25,15.475,6.345,21.266,22.162
	c4.353,11.883,2.362,25.881-5.91,41.609l-3.146,75.667h-9.205V82.922c-0.319-0.58-1.278-1.976-3.132-1.976
	c-1.707,0-3.898,1.13-6.263,3.203c-0.229,0.223-22.755,22.575-32.751,43.647c-10.052,21.184-17.017,24.415-27.205,27.196
	c-0.149,0.049-3.688,1.212-8.353,1.212h-64.516C1022.703,156.205,1019.441,153.375,1019.168,150.842z M1171.85,81.908l0.123,70.923
	h2.594l3.024-72.814l0.198-0.722c7.947-14.966,9.938-28.144,5.918-39.167c-5.234-14.354-19.142-20.14-19.145-20.14l0,0
	c-4.547,0-14.439,15.691-18.663,22.39c-1.928,3.054-2.959,4.679-3.594,5.393c-1.22,1.37-6.25,8.725-19.925,45.781
	c-10.596,28.725-20.516,37.397-25.487,40.015c-2.29,1.204-6.213,1.895-10.767,1.895c-4.189,0-8.302-0.598-11.28-1.642
	c-5.143-1.799-9.941-6.372-11.831-8.322c-5.455,2.319-29.936,12.869-35.711,17.965c-5.083,4.484-4.905,5.986-4.764,7.195
	c0.115,0.523,1.706,2.174,3.838,2.174h64.516c4.089,0,7.255-1.03,7.373-1.066c8.395-2.293,15.026-4.103,25.135-25.41
	c10.248-21.609,32.488-43.679,33.501-44.674c3.107-2.727,5.989-4.108,8.563-4.108C1170.044,77.572,1171.777,81.733,1171.85,81.908z"
	/>
<path fill="#4C4C4C" d="M221.442,184.753c14.33,0,28.644-0.845,42.907-2.871c11.026-1.561,21.973-3.185,32.875-4.801
	c65.367-9.684,127.105-18.823,197.443-15.019c21.745,1.178,43.613,3.196,64.764,5.149c53.293,4.925,108.403,10.02,165.495,1.883
	c58.468-8.322,120.759-7.792,180.988-7.281c14.792,0.129,29.559,0.253,44.25,0.253c52.495,0,110.501-0.221,166.6-0.438
	c56.091-0.217,114.098-0.438,166.58-0.438v-3.968c-52.496,0-110.502,0.221-166.601,0.438c-56.09,0.218-114.096,0.438-166.579,0.438
	c-14.679,0-29.433-0.124-44.208-0.252c-60.4-0.508-122.866-1.046-181.671,7.328c-56.571,8.051-111.407,2.99-164.435-1.911
	c-21.192-1.957-43.106-3.979-64.934-5.162c-70.803-3.847-132.758,5.344-198.357,15.063c-10.897,1.615-21.832,3.235-32.849,4.796
	c-50.924,7.22-102.95-0.81-153.268-8.582c-35.904-5.545-73.035-11.279-109.08-11.279c-0.087,0-0.162,0-0.245,0v3.968
	c0.079,0,0.166,0,0.241,0c35.7,0,72.652,5.706,108.39,11.229C146.388,178.952,183.942,184.753,221.442,184.753z"/>
</svg>
